<?xml version="1.0" encoding="UTF-8" standalone="no"?>
<!-- Created with Inkscape (http://www.inkscape.org/) -->

<svg
   xmlns:dc="http://purl.org/dc/elements/1.1/"
   xmlns:cc="http://creativecommons.org/ns#"
   xmlns:rdf="http://www.w3.org/1999/02/22-rdf-syntax-ns#"
   xmlns:svg="http://www.w3.org/2000/svg"
   xmlns="http://www.w3.org/2000/svg"
   xmlns:xlink="http://www.w3.org/1999/xlink"
   xmlns:sodipodi="http://sodipodi.sourceforge.net/DTD/sodipodi-0.dtd"
   xmlns:inkscape="http://www.inkscape.org/namespaces/inkscape"
   inkscape:export-ydpi="253.125"
   inkscape:export-xdpi="253.125"
   inkscape:export-filename="/home/lucas/Projetos/Codigo/Interface-Web/others/eye.png"
   sodipodi:docname="eye.svg"
   viewBox="0 0 64 64"
   inkscape:version="0.91 r"
   version="1.1"
   id="svg4184"
   height="64"
   width="64">
  <sodipodi:namedview
     inkscape:window-maximized="1"
     inkscape:window-y="0"
     inkscape:window-x="0"
     inkscape:window-height="1028"
     inkscape:window-width="1920"
     inkscape:grid-bbox="true"
     inkscape:document-units="px"
     showgrid="false"
     inkscape:current-layer="layer1"
     inkscape:cy="33.7164"
     inkscape:cx="27.753806"
     inkscape:zoom="11"
     inkscape:pageshadow="2"
     inkscape:pageopacity="0.0"
     borderopacity="1.0"
     bordercolor="#666666"
     pagecolor="#ffffff"
     id="base">
    <inkscape:grid
       type="xygrid"
       id="grid4732" />
  </sodipodi:namedview>
  <title
     id="title4736">Vision</title>
  <defs
     id="defs4186">
    <linearGradient
       inkscape:collect="always"
       id="iris">
      <stop
         style="stop-color:#80e5ff;stop-opacity:1"
         offset="0"
         id="stop4849" />
      <stop
         id="stop4855"
         offset="0.5"
         style="stop-color:#55ddff;stop-opacity:1" />
      <stop
         style="stop-color:#006680;stop-opacity:0.58823532"
         offset="1"
         id="stop4851" />
    </linearGradient>
    <linearGradient
       id="shadow"
       inkscape:collect="always">
      <stop
         id="stop4831"
         offset="0"
         style="stop-color:#666666;stop-opacity:1" />
      <stop
         id="stop4833"
         offset="1"
         style="stop-color:#000000;stop-opacity:0;" />
    </linearGradient>
    <linearGradient
       inkscape:collect="always"
       id="sclera">
      <stop
         style="stop-color:#ffffff;stop-opacity:1"
         offset="0"
         id="stop4746" />
      <stop
         id="stop4841"
         offset="0.75728887"
         style="stop-color:#f2f2f2;stop-opacity:1" />
      <stop
         style="stop-color:#cccccc;stop-opacity:1"
         offset="1"
         id="stop4748" />
    </linearGradient>
    <radialGradient
       inkscape:collect="always"
       xlink:href="#shadow"
       id="radialGradient4750"
       cx="32"
       cy="56.498852"
       fx="32"
       fy="56.498852"
       r="30"
       gradientTransform="matrix(0.67001684,0,0,0.16752984,10.559461,49.50886)"
       gradientUnits="userSpaceOnUse" />
    <radialGradient
       inkscape:collect="always"
       xlink:href="#sclera"
       id="radialGradient4827"
       cx="30.209639"
       cy="29.357176"
       fx="30.209639"
       fy="29.357176"
       r="30"
       gradientUnits="userSpaceOnUse"
       gradientTransform="matrix(1.0950604,0,0,1.0210847,-2.9740948,0.63812939)" />
    <radialGradient
       inkscape:collect="always"
       xlink:href="#iris"
       id="radialGradient4853"
       cx="32"
       cy="32"
       fx="32"
       fy="32"
       r="11"
       gradientUnits="userSpaceOnUse"
       spreadMethod="pad"
       gradientTransform="matrix(1.0543929,0,0,1.0210847,-1.7354802,0.63812939)" />
    <filter
       inkscape:collect="always"
       style="color-interpolation-filters:sRGB"
       id="filter5714"
       x="-0.0035894187"
       width="1.0071788"
       y="-0.0036106439"
       height="1.0072213">
      <feGaussianBlur
         inkscape:collect="always"
         stdDeviation="0.08944336"
         id="feGaussianBlur5716" />
    </filter>
  </defs>
  <metadata
     id="metadata4189">
    <rdf:RDF>
      <cc:Work
         rdf:about="">
        <dc:format>image/svg+xml</dc:format>
        <dc:type
           rdf:resource="http://purl.org/dc/dcmitype/StillImage" />
        <dc:title>Vision</dc:title>
        <dc:creator>
          <cc:Agent>
            <dc:title>Lucas Renato Aragão Silva</dc:title>
          </cc:Agent>
        </dc:creator>
        <cc:license
           rdf:resource="http://creativecommons.org/licenses/by-nc/3.0/" />
      </cc:Work>
      <cc:License
         rdf:about="http://creativecommons.org/licenses/by-nc/3.0/">
        <cc:permits
           rdf:resource="http://creativecommons.org/ns#Reproduction" />
        <cc:permits
           rdf:resource="http://creativecommons.org/ns#Distribution" />
        <cc:requires
           rdf:resource="http://creativecommons.org/ns#Notice" />
        <cc:requires
           rdf:resource="http://creativecommons.org/ns#Attribution" />
        <cc:prohibits
           rdf:resource="http://creativecommons.org/ns#CommercialUse" />
        <cc:permits
           rdf:resource="http://creativecommons.org/ns#DerivativeWorks" />
      </cc:License>
    </rdf:RDF>
  </metadata>
  <g
     id="layer1"
     inkscape:label="Layer 1"
     inkscape:groupmode="layer">
    <ellipse
       cy="58.974106"
       cx="32"
       id="circle4742"
       style="opacity:1;fill:url(#radialGradient4750);fill-opacity:1;stroke:none"
       rx="20.100506"
       ry="5.0258951">
      <title
         id="title4839">shadow</title>
    </ellipse>
    <ellipse
       style="opacity:1;fill:url(#radialGradient4827);fill-opacity:1;stroke:none"
       id="path4738"
       cx="32.005093"
       cy="31.270681"
       rx="31.631788"
       ry="30.63254">
      <title
         id="title4837">sclera</title>
    </ellipse>
    <path
       style="opacity:0.15;fill:#ff5555;fill-opacity:1;stroke:none;filter:url(#filter5714)"
       d="m 37.498047,1.8000711 c -0.652672,1.4035691 -1.457773,2.8698492 -2.455078,4.4023438 0,0 -0.002,0.00195 -0.002,0.00195 l -0.404297,0.3828125 -2.208985,0.1640625 -0.02344,0.00195 -3.601513,-1.1230406 -3.388672,-2.5859375 c 0,0 0,-0.00195 0,-0.00195 -0.0791,-0.3318314 -0.127604,-0.6327322 -0.197265,-0.9550781 a 30,30 0 0 0 -0.210938,0.046875 c 0.08098,0.3324264 0.138171,0.5945456 0.232422,0.9609343 l -0.935547,4.2773438 0,0.00195 -0.123046,0.1660156 -0.002,0 -0.320312,-0.1601562 -0.515625,-0.7675781 -0.677735,-1.0078126 0,-0.00195 0.08789,-1.1484375 -0.392578,-0.6738281 -0.15625,0.091797 0.363281,0.625 -0.07422,0.9863281 -1.578126,-0.8359375 0,-0.00195 -0.509765,-1.0097657 a 30,30 0 0 0 -0.107422,0.048828 l -0.05469,0.027344 0.466796,0.9257813 0,0.00195 -0.986328,0.1152344 -0.140625,-0.21875 -0.152343,0.097656 0.09375,0.1445313 -0.111329,0.013672 -0.65039,-0.3769531 -0.0918,0.15625 0.541016,0.3125 -0.919922,0.5292969 0.21875,-0.9296875 a 30,30 0 0 0 -0.210938,0.1054687 l -0.28125,1.1992188 -0.002,0.00195 -0.214844,0.4023438 0.107422,0.056641 -0.210937,0.8925781 0,0.00195 -3.457032,2.8730465 -0.002,0.002 -1.865234,0.601562 -0.740235,0.238281 -1.447265,-0.125 a 30,30 0 0 0 -0.15625,0.166016 l 1.421875,0.124999 -1.097656,1.191406 -0.9511722,0.359375 -0.7949219,-0.04102 a 30,30 0 0 0 -0.050781,0.06641 l -0.00586,0.113281 0.8808594,0.04297 0.8242187,-0.310547 -0.2714843,0.779297 0.1699223,0.06055 0.330078,-0.945313 0.724609,-0.787109 0.484375,-0.52539 0.904297,-0.291016 1.5625,-0.503905 -0.623047,2.878905 -1.287109,1.320312 -0.002,0 -1.220703,0.398438 -0.914063,-0.353516 -0.5917969,-0.642578 -0.1347656,-0.736328 -0.1777344,0.0332 0.1445312,0.785156 0.5292969,0.578125 -0.6289063,0.119141 0.035156,0.177734 0.7617181,-0.144531 0.002,0 0.835938,0.324219 -0.398438,0.609375 -0.6230461,0.412109 0.099609,0.150391 0.6542971,-0.431641 0.460937,-0.708984 1.083985,-0.351563 -0.240235,0.876953 -0.599609,0.646485 0.132812,0.123047 0.628907,-0.677735 0.291015,-1.060547 0,-0.002 0.566406,-0.578125 0.619141,-0.634765 0.414063,2.126953 -0.367188,1.30664 -0.123047,0.439453 -0.002,0.002 -0.933594,0.978515 0.13086,0.125 0.814453,-0.855469 0.126953,1.201172 0.648438,0.873047 0,0.002 0.09766,0.835938 0.179687,-0.02148 -0.08008,-0.685547 0.59375,0.326171 0.75,0.03125 0.0078,-0.179687 -0.707032,-0.0293 -0.0332,-0.01758 0,-0.002 -0.0332,-0.783203 0.265625,-0.759766 0.40625,0.589844 0.148438,-0.101563 -0.496094,-0.722656 -0.230469,-1.140625 0.859375,0.421875 0.751953,-0.06445 -0.01367,-0.179688 -0.703125,0.06055 -0.960937,-0.470703 -0.919922,-1.21289 -0.443359,-2.28125 0.175781,-0.810547 0.476562,-2.199218 0,-0.002 3.044922,-2.5292964 0.326172,-0.2714844 1.095703,2.9746088 -0.08398,0.361328 -0.578125,-0.291015 -0.802734,0.134765 0.03125,0.177734 0.742187,-0.125 0.564453,0.285156 -0.03125,0.142578 -0.002,0 -0.660156,0.203125 -0.904297,-0.134765 -0.675781,-0.441406 -0.09961,0.15039 0.708985,0.46289 0.765625,0.113282 -0.453125,0.371093 0.113281,0.140625 0.599609,-0.490234 0.002,0 0.298829,-0.0918 0.257812,-0.08008 -0.1875,0.806641 0,0.002 -0.242188,0.222656 -0.203124,-0.01953 -0.01758,0.179687 0.04297,0.0039 -0.71289,0.660157 -0.002,0 -1.052734,0.0918 -0.822266,0.472657 -0.365234,0.662109 0.158203,0.08789 0.341797,-0.617188 0.742188,-0.429687 0.894531,-0.07617 -0.441407,1.05664 -0.71289,0.472657 0.09961,0.15039 0.591797,-0.392578 0,0.08203 -0.01367,0.736329 -0.474609,0.576171 0.138672,0.115235 0.398437,-0.480469 0.228516,0.582031 0.167969,-0.06641 -0.277344,-0.708984 0.0098,-0.632813 0.0059,-0.355468 0,-0.002 0.15039,-0.355468 0.345704,-0.826172 0,-0.002 0.002,-0.002 0.839843,-0.775391 0.002,0 0.318359,0.03125 0.03516,0.08789 -0.351562,0.480468 0.146484,0.107422 0.283203,-0.388672 0.111328,0.283203 0.769532,0.439453 0.08984,-0.158203 -0.714843,-0.40625 -0.13086,-0.330078 0.07422,-0.101562 0.835937,-0.222657 -0.175781,0.572266 0.171875,0.05273 0.220703,-0.71289 0.240235,-0.304688 0.107422,0.660157 -0.216797,0.710937 0.171875,0.05273 0.179687,-0.583984 0.460938,0.47461 0.128906,-0.125 -0.546875,-0.564454 -0.130859,-0.800781 0.787109,0.208985 0.527344,0.466796 0.11914,-0.134765 -0.416015,-0.369141 0.589843,-0.154297 -0.04492,-0.175781 -0.730469,0.191406 -0.722656,-0.191406 0,-0.002 0.277343,-0.351562 0.002,-0.0019 0.658204,-0.404297 0.53125,0.207031 0,0.002 -0.419922,0.476562 0.134765,0.119141 0.484375,-0.552734 0.107422,-0.02734 -0.138672,1.029297 0,0.002 -0.640625,1.160156 -0.699218,0.320312 -0.01172,0.0059 -0.705078,-0.05078 -0.01172,0.179687 0.582031,0.04297 -0.298828,0.511719 0.154297,0.0918 0.359375,-0.615234 0.002,0 0.01758,-0.0098 0.583985,-0.265624 -0.01953,1.048828 -0.308593,0.642578 0.162109,0.07813 0.242188,-0.503907 0.002,0 0.246093,0.44336 -0.06641,0.0059 0.01758,0.179688 0.640625,-0.05859 -0.453125,0.642578 -0.002,0.002 -0.701172,0.292969 0.07031,0.166016 0.568359,-0.238282 -0.115234,0.546875 0.177734,0.03711 0.146485,-0.697266 0,-0.002 0.253906,-0.359375 0.302734,-0.427734 1.076172,-0.548828 0.267578,-0.134766 0.34961,-0.01563 0.125,0.173828 0.0039,-0.002 -0.02148,0.664062 -0.304687,0.583985 -0.002,0 -0.386719,-0.0332 -0.01563,0.179687 0.753906,0.06445 0.339844,-0.201172 0.002,0 0.265625,0.375 0.04102,-0.0293 -0.002,0.0293 0.18164,0.01172 0.04102,-0.726562 0.476562,-0.886719 0.164063,-0.304688 0.519531,-0.34375 0.09375,0.666016 0.179688,-0.02539 -0.107422,-0.751953 0.01172,-0.0078 0.667969,0.322265 0.0039,-0.0078 0.0293,0.300781 0.425782,0.720703 -0.886719,-0.07813 -0.785156,0.339844 0.07227,0.166016 0.744141,-0.322266 0.945312,0.08398 -0.0059,0.05859 0,0.002 -0.869141,1.041016 0,0.002 -0.804687,0.144531 0.03125,0.177735 0.724609,-0.128907 -0.06055,0.951172 0.449219,0.833985 0.160156,-0.08594 -0.425781,-0.787109 0.06445,-0.988281 0.810547,-0.97461 0.002,0 0.41211,0.615234 -0.236329,0.166016 0.103516,0.148438 0.234375,-0.164063 0.523438,0.783203 -0.888672,0.376953 -0.480451,0.826171 -0.677734,0.357422 L 27,18.966085 27.722656,18.585226 28.201172,17.764914 29,17.427023 l 0.07617,0.546875 0,0.002 -0.04883,0.232422 -0.53125,0.568359 0.132812,0.123047 0.509766,-0.546875 0.419922,0.646484 0.15039,-0.09961 -0.410156,-0.630859 -0.03906,-0.289063 0,-0.002 0.111328,-0.539062 0.607422,0.21289 0.658203,0.634766 0.646484,0.101562 -1.142578,1.273438 -0.916016,0.255859 -0.771484,-0.162109 -0.03711,0.177734 0.607422,0.126953 -0.525391,0.433594 0.115234,0.138672 0.654297,-0.539063 0.002,-0.002 0.002,0 0.779297,-0.216797 -0.291015,0.855469 -0.615235,0.50586 0.115235,0.138671 0.654296,-0.537109 0.353516,-1.046875 0.002,0 1.082031,-1.208984 0.515626,1.558594 -0.367188,0.298828 0.115234,0.138672 0.3125,-0.253907 0.002,0 0.21289,0.648438 -0.179687,0.08203 0.07617,0.164062 0.142579,-0.06445 -0.04492,0.169922 -0.310547,-0.02148 -0.01172,0.181641 0.275391,0.01953 -0.46875,1.773437 -1.330078,1.158203 -0.404297,0.06445 -1.011719,0.160157 -1.048828,-0.626953 -1.015625,0 0,0.179687 0.966797,0 0.90625,0.542969 -0.771485,0.488281 -0.002,0 -0.824218,-0.05078 -0.634766,-0.431641 -0.101563,0.150391 0.675782,0.457031 0.765625,0.04883 -0.361328,0.6875 0.158203,0.08398 0.416015,-0.789063 0,-0.002 0.652344,-0.410156 0.234375,-0.148438 0.96875,-0.154297 0.324219,-0.05078 -0.453125,1.066406 -0.863281,0.65625 -0.345704,0.798828 0.166016,0.07227 0.326172,-0.755859 0.740234,-0.560547 0.234375,0.833984 0,0.0039 -0.06641,0.837891 -0.394531,0.644531 0.154297,0.09375 0.416015,-0.68164 0.05469,-0.683594 0.43164,0.496094 0.207032,0.697265 0.171875,-0.05078 -0.216797,-0.736328 -0.583985,-0.673828 -0.261718,-0.927734 0.503906,-1.189454 0,-0.002 0.002,-0.002 0.597656,-0.517578 0.628906,-0.546875 0.19336,1.523437 0,0.002 -0.5625,0.980468 -0.564453,0.470704 0.115234,0.138671 0.589844,-0.490234 0.535156,-0.933594 0.796875,0.796875 0.26349,0.689596 0.169922,-0.06445 -0.21875,-0.568359 0.894531,0.111328 0.02344,-0.179687 -1.013672,-0.125 -0.851563,-0.84961 -0.162109,-1.285156 -0.04883,-0.390625 0.480469,-1.818359 0.33789,0.02344 0.0098,-0.0039 0.902344,0.808593 0.326171,1.06836 0,0.002 -0.105468,0.832031 0.179687,0.02148 0.08398,-0.669922 0.507813,0.496093 0.125,-0.128906 -0.619141,-0.609375 -0.287109,-0.945312 0.810547,0.15625 0.03516,-0.177735 -0.935547,-0.179687 -0.826172,-0.738281 0.689453,-0.230469 0.677735,-0.667969 0.435547,0.726563 0.154297,-0.09375 -0.478516,-0.800782 0.142578,-1.105468 0,-0.002 1.160156,-1.730469 0.53711,1.064453 0,0.002 0.06641,0.914063 -0.455078,0.652343 0.148437,0.101563 0.490235,-0.703125 -0.05664,-0.816407 0.751953,0.480469 0.310547,0.791016 -0.173828,0.738281 0.175781,0.04102 0.1875,-0.791016 -0.353515,-0.898437 -0.931641,-0.597657 -0.002,-0.002 -0.488281,-0.964843 -0.103516,-0.207032 0.285156,-2.433594 2.31836,1.285157 0.816406,1.453125 0,0.002 -0.134766,1.355469 0,0.002 -0.34375,0.667969 0.160157,0.08203 0.271484,-0.525391 0.242187,0.47461 -0.261718,0.06641 0.04297,0.175781 0.304688,-0.07617 0.103515,0.203125 0.160157,-0.08203 -0.08398,-0.166016 0.226563,-0.05664 0.728515,0.34375 0.07422,0.132812 0,0.002 -0.04883,0.392578 0.179688,0.02148 0.01758,-0.146485 0.308593,0.556641 -0.757812,-0.1875 -0.708984,-0.486328 -0.101563,0.148437 0.736328,0.50586 0.970703,0.238281 0.0039,0.002 0.298828,0.208984 0,0.002 0.0078,0.06836 0.07813,-0.0098 0.78125,0.550782 -1.175781,0.55664 -0.01172,0.0059 -0.287109,-0.01953 -0.949219,-0.0625 -0.826172,-0.376953 -0.791015,0.09375 0.02148,0.179688 0.740234,-0.08789 0.632813,0.287109 0,0.002 -0.642578,0.349609 0.08594,0.160156 0.777344,-0.425781 1.060547,0.07031 -0.648438,0.697266 -0.861328,0.25 -0.74414,-0.201172 -0.04687,0.173828 0.792968,0.212891 0.796875,-0.228516 -0.125,0.765625 0.177735,0.0293 0.144531,-0.878906 0,-0.002 0.496094,-0.533203 0.267578,-0.289063 0.002,-0.002 1.304687,-0.615234 1.66211,0.294922 -0.845703,0.550781 -0.002,0 -0.845704,0.04102 0.0078,0.179687 0.730469,-0.03516 -0.365235,0.875 0,0.002 -0.505859,0.492187 0.125,0.128907 0.367188,-0.357422 0.002,0.583984 0.179687,0 0,-0.779297 0.408203,-0.980469 0,-0.002 0.992188,-0.644531 0.02734,-0.01758 2.035157,-0.365234 -0.478516,1.4375 -0.002,0.0039 -0.677734,0.84375 -0.002,0 -0.818359,0.179687 0.03906,0.177735 0.742187,-0.164063 0.0098,0.705078 0.179687,-0.002 -0.0098,-0.785156 0.576171,-0.716797 0.199219,0.789063 0.173828,-0.04492 -0.234375,-0.9375 0.511719,-1.546875 0.390625,-0.277344 0.40625,0.464844 0.78125,0.248047 -0.449219,0.568359 -0.708984,0.253906 0.06055,0.169922 0.603516,-0.214844 -0.05469,0.867188 -0.332031,0.666015 0.162109,0.08008 0.259766,-0.519532 0.308594,0.611329 0.160156,-0.08203 -0.376953,-0.75 0.04492,-0.75 0.01367,-0.21875 0,-0.002 0.492188,-0.621094 0.002,0 0.123047,0.03906 0.130859,-0.04687 0.275391,0.726562 -0.248047,0.730469 0.171875,0.05664 0.220703,-0.654297 0.619141,0.373047 0.09375,-0.154297 -0.689453,-0.416016 0,-0.002 -0.150391,-0.396484 -0.123047,-0.326172 0.943359,-0.34375 1.451172,0.03906 -0.02734,0.164063 0,0.002 -0.332032,0.810547 -0.002,0.002 -0.738281,0.566406 -0.787109,0.220703 0.04883,0.173828 0.820312,-0.230468 0.652344,-0.498047 0.01367,0.234375 0,0.002 -0.990234,1.398437 -0.002,0.002 -0.513672,0.195312 -0.992187,0.376953 -0.002,0 -0.861328,-0.283203 -0.574219,-0.476562 -0.115234,0.138672 0.599609,0.498046 0.804688,0.263672 0,0.002 -0.820313,1.060547 -0.992187,0.34961 -0.04102,0.01367 -0.705078,-0.0332 -0.0098,0.179688 0.498047,0.02539 -0.560547,0.488282 0.117188,0.136718 0.71875,-0.625 0.002,0 0.90625,-0.320312 -0.177735,0.849609 0.175782,0.03711 0.207031,-0.986328 0,-0.002 0.886719,-1.144532 1.388672,-0.527344 -0.203126,1.025391 -0.636718,0.841797 -0.757813,0.349609 0.07617,0.164063 0.636719,-0.294922 -0.04687,0.583984 0.179687,0.01367 0.05859,-0.710937 0.658203,-0.871094 0.240235,-1.207031 0,-0.002 L 51,24.014914 l 0.0059,0.105468 0.179688,-0.01172 -0.01953,-0.330079 0,-0.002 0.0098,-0.01172 0.447266,2.015624 0,0.002 -0.714844,1.875 -0.927734,0.53125 -0.861328,0.09375 -0.699219,-0.173828 -0.04297,0.175781 0.730469,0.18164 0.697266,-0.07617 -0.337891,0.425781 0.140625,0.113281 0.458984,-0.580078 0.0039,-0.0039 0.002,-0.002 0.849609,-0.484374 0.355469,1.455078 0,0.002 -0.273438,0.777343 0.169922,0.06055 0.234375,-0.666015 0.582031,0.599609 0.214844,0.785156 0.173828,-0.04883 -0.226562,-0.828125 -0.697266,-0.720703 0,-0.002 -0.002,0 0,-0.002 -0.376953,-1.544922 0.68164,-1.789063 0.06641,0.05078 -0.146485,0.580078 0.175782,0.04297 0.125,-0.5 0.548828,0.43164 -0.16211,0.326172 0.16211,0.08008 0.146484,-0.292969 0.433594,0.341797 0,0.002 0.564453,0.914063 0.128906,0.732422 0.177735,-0.03125 -0.134766,-0.767578 -0.484375,-0.785157 0.722656,0.126954 0.591797,0.582031 0.126953,-0.126953 -0.632812,-0.623047 -0.953125,-0.167969 -0.002,0 -0.457032,-0.361328 0.140625,-0.283203 -0.02539,-0.912109 0,-0.002 0.36914,-0.9375 0.166016,0.148438 -0.01758,0.0625 0.125,0.03516 0.523437,0.470703 0.138672,0.904297 -0.304687,0.644531 0.164062,0.07617 0.263672,-0.560547 0.460938,0.41211 0.121093,-0.132813 -0.527343,-0.472656 -0.148438,-0.962891 -0.220703,-0.199218 -0.002,0 -0.238281,-0.689454 0.07813,-0.269531 0.002,0 0.685547,0.490235 0.002,0.002 0.277343,0.640625 0.166016,-0.07227 -0.232422,-0.535156 0.603516,0.0039 0.002,-0.179687 -0.714844,-0.0078 -0.53125,-0.378906 -0.205078,-0.146484 0.117188,-0.400391 0.002,-0.002 0.794922,-0.554688 0.02539,0.13086 0,0.002 -0.08008,0.371093 0.160156,0.03516 0.03516,0.179687 -0.322266,0.666016 0.162109,0.08008 0.34961,-0.720703 -0.119141,-0.609375 0.05273,-0.25 0.224609,0.01367 0.462891,0.367187 0.002,0.002 0.002,0.02539 -0.304688,0.712891 0.166016,0.07031 0.292969,-0.685547 0.251953,0.201172 0.05469,0.294922 -0.03125,0.123047 -0.646484,0.544922 0.115234,0.138672 0.691407,-0.583985 0.03906,-0.15625 0.294922,0.550781 0.158203,-0.08594 -0.378906,-0.708984 0.552734,0.134765 0.04102,-0.175781 -0.5625,-0.136719 0.107422,-0.423828 0.503906,0.421875 0.0098,-0.01172 0.002,0.164063 0.18164,-0.002 -0.0078,-0.626953 0.53125,0.261718 0.08008,-0.162109 -0.644531,-0.320312 -0.166016,-0.207032 0.287109,-0.0078 -0.0059,-0.179688 -0.207031,0.0059 0.0078,-0.06445 -0.310547,-0.03711 -0.11914,-0.146484 0,-0.002 -0.0332,-0.47461 0.0078,-0.01367 -0.0078,-0.0039 -0.08203,-1.1875 0,-0.002 0.291016,-0.634766 0.666016,0.625 0.71875,1.5 0,0.002 0.04883,1.298829 0,0.002 -0.47461,0.638672 0.146485,0.107422 0.40625,-0.546876 0.416015,0.826172 0.296875,0.216797 -0.542968,0.595703 -0.002,0 -0.814454,0.181641 0.03906,0.177734 0.703125,-0.15625 -0.230469,1.007813 -0.644531,0.535156 0.115234,0.138672 0.691406,-0.574219 0.271485,-1.185547 0,-0.002 0.558594,-0.613281 0.002,0 0.261718,0.191406 0.105469,-0.146484 -0.24414,-0.179688 0.273437,-0.300781 0.125,0.605469 0.105469,0.519531 0,0.0039 -0.228516,1.134766 -0.443359,0.556641 0.140625,0.113281 0.335937,-0.419922 0.126954,0.644531 0.177734,-0.03516 -0.16211,-0.820312 0.199219,-0.990235 0.669922,0.685547 0,0.002 0.326172,0.845703 0.167969,-0.06445 -0.253906,-0.662109 0.52539,0.228515 0.0625,-0.144531 a 30,30 0 0 0 -0.0059,-0.0293 l -0.691407,-0.298828 -0.002,-0.002 -0.246093,-0.253906 -0.523438,-0.535156 -0.1875,-0.916016 -0.07227,-0.357422 0,-0.002 0.242188,-0.875 0.619141,0.115234 0.115234,-0.0293 a 30,30 0 0 0 -0.05664,-0.169922 l -0.06445,0.01563 -0.564453,-0.105469 0,-0.002 0.144531,-0.523438 0.47461,0.585938 a 30,30 0 0 0 -0.16211,-0.488282 l -0.271484,-0.335937 -0.002,0 0,-0.002 -0.267578,-0.785156 0.144531,0.128906 0.06836,0.0039 a 30,30 0 0 0 -0.08789,-0.265625 l -0.244141,-0.214844 -0.189453,-0.552734 0.126953,-0.06445 a 30,30 0 0 0 -0.07422,-0.166016 l -0.111328,0.05664 -0.04102,-0.119141 0.136718,0.0293 a 30,30 0 0 0 -0.0918,-0.205078 l -0.134765,-0.0293 -0.353516,-0.382812 0.0918,-0.160157 0.002,-0.002 0.111328,-0.06055 a 30,30 0 0 0 -0.07422,-0.166015 l -0.123047,0.06836 -0.347656,-0.04687 0,-0.002 -0.002,0 -1.128906,-1.220703 0,-0.002 -0.02148,-0.119141 -0.279297,-1.554688 0.427734,0.02734 a 30,30 0 0 0 -0.107422,-0.189453 l -0.351562,-0.02148 -0.002,0 -0.152344,-0.84961 a 30,30 0 0 0 -0.244141,-0.34375 l 0.210938,1.181641 -1.753906,-0.113281 1.326171,-1.369141 a 30,30 0 0 0 -0.105594,-0.148121 l -1.458985,1.501953 -0.265625,-0.01563 -0.002,0 0,-0.002 -0.002,0 -1.326172,-0.78711 -2.232328,-1.322213 -2.492187,-4.1835927 3.306641,-0.3046875 A 30,30 0 0 0 52.003906,8.9582743 L 48.742188,9.2571024 43.578125,6.0051493 C 42.941256,4.9324708 42.399121,3.9368582 41.929688,3.001243 A 30,30 0 0 0 41.820312,2.96218 c 0.31783,0.6377725 0.636007,1.2751281 1.025391,1.9726563 C 42.327712,4.1635213 41.849254,3.4471105 41.417969,2.813743 A 30,30 0 0 0 41.117188,2.704368 c 0.588807,0.8560419 1.28977,1.9217192 2.302734,3.3945313 l 0.394531,4.3281247 0,0.002 -0.734375,2.095702 -0.002,0.002 -0.892578,0.964844 -0.576172,0.294922 -0.435547,0.220703 -0.759766,-0.128906 -0.03125,0.177734 0.66211,0.113281 -0.306641,0.550782 0.15625,0.08789 0.357422,-0.636718 0.875,-0.445313 -0.0957,0.677734 0.177734,0.02539 0.117188,-0.822266 0,-0.002 0.785156,-0.845703 0.294922,1.212891 -0.476562,1.007812 0,0.002 -0.002,0 0,0.002 -0.517578,0.490234 0.125,0.130859 0.41211,-0.390625 0.09961,0.482422 -0.498047,-0.01367 -0.0059,0.181641 0.542969,0.01367 0,0.002 0.0078,-0.002 0.308594,0.0078 0.736328,-0.472656 0.0078,0.238281 0.179688,-0.0059 -0.01367,-0.398438 0.101562,-0.166015 0.501954,0.193359 0.06445,-0.167969 -0.470703,-0.18164 0.302734,-0.498047 0.267578,0.707031 0,0.002 -0.195312,0.6875 0.171875,0.04883 0.166015,-0.580078 0.480469,0.410157 0.117187,-0.138672 -0.568359,-0.486328 -0.02734,-0.07422 0.583985,0.222656 1.08789,-0.08984 1.136719,0.402344 1.089844,1.275391 -0.785156,0.304687 -0.615235,0.240235 -0.002,0 -1.074219,-0.02148 -0.724609,0.34375 0.07617,0.164063 0.6875,-0.326172 0.859375,0.01758 -0.75,0.896484 -0.002,0.002 -0.402344,0.08398 -0.513672,-0.726563 -0.0957,-0.769531 -0.179688,0.02344 0.07422,0.597656 -0.691406,-0.455078 -0.822266,-0.0078 -0.002,0.181641 0.769532,0.0059 0.796874,0.523438 0,0.002 0.470704,0.666015 -0.189454,0.03906 0.03711,0.177734 0.265625,-0.05664 0.002,0 0.121094,0.171875 -0.978516,0.169921 -0.002,0 -0.855469,-0.177734 -0.03516,0.177734 0.646484,0.134766 -0.453125,0.275391 0.09375,0.154297 0.636719,-0.386719 1.097656,-0.189453 0.0293,0.0078 0,0.002 -0.06055,0.246094 0.173828,0.04297 0.06055,-0.238281 1.144532,0.33789 -0.433594,0.675781 -0.751953,0.28125 0.0625,0.169922 0.808594,-0.304687 0.513671,-0.798828 0.351563,-0.121094 1.064453,-0.369141 -0.65625,1.199219 -0.130859,0.07422 -0.714844,0.40625 -0.002,0 -0.753907,0.08398 0.01953,0.179688 0.61914,-0.06836 -0.148437,0.351563 -0.002,0 -0.01758,0.01367 -0.589844,0.417969 -0.03906,-0.04492 -0.134765,0.117187 0.02734,0.0332 -0.38086,0.271485 -0.0039,0.002 -2.164063,0.388672 -0.002,0 -1.876953,-0.333985 -0.002,0 0,-0.002 -0.002,0 -0.691406,-0.486328 -0.21875,-0.154297 -0.06641,-0.580078 0.751954,0.294922 0.523437,0.59375 0.134766,-0.121094 -0.552735,-0.623047 -0.910156,-0.359375 -0.726562,-0.818359 0,-0.002 -0.261719,-0.863281 0.130859,-0.248047 0.535156,0.02734 0.0098,-0.179687 -0.451172,-0.02344 0.09766,-0.185547 -0.160156,-0.08398 -0.136719,0.259766 -0.191406,-0.0098 -0.002,0 -0.460938,-0.375 0,-0.002 0.01172,-0.765625 -0.179687,-0.0039 -0.0098,0.625 -0.480469,-0.388672 0,-0.002 -0.002,0 -0.75,-1.337891 1.378906,0.117188 0.648438,0.496093 0.109375,-0.142578 -0.525391,-0.402343 1.017578,-0.28125 0.628907,-0.792969 -0.140625,-0.111328 -0.591797,0.746093 -1.119141,0.310547 -0.002,0 -1.537109,-0.130859 -0.002,0 -2.414063,-1.339844 -0.002,-0.002 -1.089844,-2.757813 -0.06836,-0.171874 0,-0.002 -0.03125,-1.447264 0,-0.0019 0.02148,-0.08789 0.501953,0.511718 0.128907,-0.126953 -0.603516,-0.615234 0,-0.0019 -0.05859,-0.132812 -0.002,-0.00391 -0.0078,-0.3925782 -0.01563,-0.6582031 1.49414,0.265625 1.09375,1.2851553 0,0.002 0.04492,0.677734 0.02734,0.417969 0,0.002 -0.25,0.662109 0.167969,0.06445 0.207031,-0.546875 0.501953,0.535157 0.132813,-0.125 -0.580079,-0.615235 -0.06445,-0.976562 0.929688,0.330078 0.06135,-0.169968 L 37.488281,10.278586 36.441406,9.0461649 37,8.7375712 l 0.455078,0.3066406 0.101563,-0.1503906 -0.378907,-0.2539063 0.289063,-0.1601563 0.002,0 0.841797,-0.0625 -0.01367,-0.1796874 -0.683594,0.050781 0.509766,-0.8183594 -0.154297,-0.095703 -0.591797,0.9492187 -0.002,0.00195 -0.365234,0.2011718 -0.21875,-0.1464843 -0.59961,-0.8730469 1.041016,-0.068359 -0.01172,-0.1816406 -1.171875,0.078125 -1.085937,-0.6054688 c 0.14824,-0.2177224 0.20296,-0.3193165 0.339843,-0.5253906 0,0 0,-0.00195 0,-0.00195 l 0.417969,-0.3945313 0.002,-0.00195 0.902344,-0.2910156 0.002,0 0.833985,0.2226563 0.04687,-0.1738282 -0.699218,-0.1855468 0.529297,-0.4746094 -0.119141,-0.1347656 -0.638672,0.5722656 -0.002,0 -0.205078,0.066406 -0.544922,0.1738282 0.191406,-0.4902344 0.002,-0.00195 C 36.154098,4.880646 36.291814,4.6763123 36.4122,4.4836712 c 0,0 0,-0.00195 0,-0.00195 l 0.478516,-0.4296875 0.002,0 0.810547,-0.1738281 -0.03711,-0.1757813 -0.675782,0.1445313 0.205078,-0.5390626 -0.02148,-0.00781 C 37.294833,3.1046387 37.538856,2.7372042 37.646625,2.565708 37.803279,2.3164218 37.94643,2.0993568 38.080219,1.9016454 a 30,30 0 0 0 -0.189594,-0.041027 c -0.124469,0.1865119 -0.253363,0.3816222 -0.396484,0.609375 -0.126217,0.2008517 -0.406895,0.6226388 -0.550782,0.8554688 0.269532,-0.5096993 0.503821,-1.0050778 0.732422,-1.4980469 a 30,30 0 0 0 -0.177734,-0.027344 z m -12.109375,1.4511719 3.292969,2.5136719 0.002,0.00195 0.464844,1.2929688 0.412109,1.1523437 0,0.00195 -0.138672,0.6953126 -3,-0.2519532 -1.740234,-0.8671875 -0.199219,-0.3886719 0.58789,-2.6933593 0.31836,-1.4570313 z m -4.558594,1.5546875 0.002,0 1.675781,0.8925781 0.002,0 0,0.00195 1.126953,1.6796875 -1.566407,0.203125 -0.5625,-0.2929688 -0.240234,-0.3125 -0.142578,0.109375 0.0039,0.00586 L 20.837891,6.9406962 20.132812,6.0617899 19.986328,5.1653055 19.832031,4.923118 20.830078,4.8059305 Z m -1.197266,0.140625 0.181641,0.2832031 0.121094,0.7480469 -0.576172,-0.140625 -0.04297,0.1738281 0.679688,0.1679688 0.341797,0.4257812 0.242187,0.3027344 -0.953125,-0.066406 -0.01172,0.1796875 1.138672,0.080078 0.634766,0.3300781 0.162109,0.2109375 0.0332,0.1953125 -0.617187,0.3496094 -0.455078,0.7207031 0.152343,0.097656 0.431641,-0.6835938 0.521485,-0.2949219 0.07812,0.4609376 0.523438,0.6835937 -0.828125,0.296875 0.06055,0.1699219 0.917969,-0.328125 0.402343,0.1074218 -0.386718,0.515625 -0.002,0.00195 -0.376953,0.2324216 -0.638671,0.394531 -0.142579,-0.05664 -0.847656,0.01758 0.0039,0.179687 0.78125,-0.01563 -0.517578,0.320312 -0.002,0 -0.945312,-0.08203 -0.002,0 -0.691406,-0.662108 0,-0.002 -0.002,-0.0019 -0.496094,-1.3476564 -0.632812,-1.7226563 0.3125,-1.3339844 0.002,-0.00195 0.132812,-0.2480469 1.101563,-0.6328124 0.0039,0 0.207031,-0.025391 z m 9.273438,0.90625 3.134766,0.9746094 0.302734,0.095703 0.002,0 0.720703,0.7382813 -2.65625,1.1582031 -0.002,0 -0.675781,-0.6660156 -0.002,-0.00195 L 29.515625,7.5500712 28.90625,5.8528055 Z m 14.708984,0.3886719 5.03711,3.171875 0.002,0.00195 2.550781,4.2812486 0,0.002 -0.1875,1.472657 -0.236328,1.855468 -1.458984,-0.257812 -1.148438,-1.34375 0,-0.002 -0.148437,-1.472657 0,-0.002 0.298828,-0.796875 -0.173828,-0.767578 -0.175782,0.03906 0.160157,0.714843 -0.21875,0.585938 -0.560547,-0.982422 -0.01563,-0.757812 -0.179688,0.0039 0.01172,0.59375 -0.443359,-0.333985 -0.109375,0.144532 0.578125,0.435547 0,0.002 0.648437,1.134765 0.136719,1.363282 -1.0625,-0.375 -0.433594,0.03711 0.01367,-0.775391 -0.414062,-0.755859 0.742187,0.138672 0.0332,-0.175781 -0.908203,-0.171876 -0.002,0 -0.945313,-0.691406 -0.132812,-0.279297 -0.876953,-1.857421 -0.002,-0.002 0,-0.002 -0.378907,-4.1757804 z m -8.958984,0.5253906 0.002,0 0.03906,0.021484 0,0.00195 c -0.05064,0.075013 -0.07546,0.1415111 -0.126954,0.2167969 0,0 -0.002,0.00195 -0.002,0.00195 L 33.244141,7.5852274 32.595703,6.9211649 34.111328,6.8078836 34.65625,6.766868 Z m 0.208984,0.1171875 1.097657,0.609375 0.002,0.00195 0.697265,1.015625 0.169922,0.1132813 -0.167969,0.091797 -0.376953,0.2089844 -0.002,0 -1.529297,-0.2714844 -0.03516,-1.5449219 0,-0.00195 c 0.06652,-0.095878 0.08018,-0.1288571 0.144531,-0.2226563 z m -0.322265,0.3339844 0.03125,1.4042969 -0.384766,-0.068359 0,-0.00195 -0.404297,-0.4121094 -0.40625,-0.4160156 1.164063,-0.5058594 z m -10.765625,0.3261719 0.291015,0.1425781 0,0.00195 -0.841797,1.1230469 -0.33789,0.4492187 -0.470703,-0.125 -0.552735,-0.7226562 -0.08203,-0.4804688 0.298828,-0.1699218 0.002,0 0.05078,-0.00781 1.642578,-0.2109375 z m 0.59375,0.039063 0.03711,0.070312 -0.06445,-0.03125 0.02734,-0.039063 z m -2.644532,0.023437 0.138672,0.072266 L 21.75,7.7434305 21.726562,7.6067118 Z m 2.50586,0.1640625 0.316406,0.15625 0.002,0.00195 0.615235,1.1972656 -1.142578,0.4414063 -0.002,0 -0.945312,-0.2539063 0,-0.00195 1.15625,-1.5410156 z m 8.96875,0.029297 0.002,0 0.865234,0.8867187 0,0.00195 0.22461,0.515625 0.310547,0.7226563 0.0098,0.3964837 0,0.0039 -0.201172,0.792968 0.175782,0.04492 0.04102,-0.158203 0.01563,0.777344 -2.521484,3.158203 -0.002,0.002 -1.802735,0.990234 -0.002,0 -1.394531,0.0098 -0.002,0 -0.878906,-0.611328 0.197265,-2.498047 0.22461,-0.435547 0.261718,0.490235 0.160157,-0.08399 -0.320313,-0.601562 0.851563,-1.648437 0.002,0 0.136719,0.388671 -0.189454,0.734375 0.173828,0.04492 0.203126,-0.787109 -0.210938,-0.599609 0,-0.002 0.625,-1.2089841 0.210938,-0.091797 0.002,0 0.04102,0.041016 0.753906,0.7421875 0.539063,1.1406236 -0.126953,0.978515 -0.552734,0.740235 -0.01172,0.824219 0.18164,0.002 0.0098,-0.765625 0.546875,-0.730469 0.138672,-1.078125 -0.464844,-0.9843735 0.894531,0.3945305 0.07227,-0.164062 -1.097656,-0.4843747 -0.002,-0.00195 -0.0039,-0.00195 -0.740234,-0.7304687 2.248047,-0.9785157 0.40625,-0.1777343 z m -8.378906,0.2636718 1.351562,0.671875 -0.83789,0.3242188 -0.513672,-0.9960938 z m -12.16211,0.3164062 a 30,30 0 0 0 -0.140625,0.1230469 l 0.289063,0.2089843 0.105468,-0.1464843 -0.253906,-0.1855469 z m 17.050782,0.00781 0.519531,0.5097656 -0.152344,0.066406 -0.002,0 -0.472656,-0.039062 0.107422,-0.5371094 z m 4.583984,0.3671875 0.283203,0.050781 0.01563,0.6386719 -0.298828,-0.6894531 z m -7.884766,0.083984 2.976563,0.2480469 -0.167969,0.84375 -0.738281,1.0781243 -0.730469,0.417968 0.08984,0.158203 0.589844,-0.337891 -0.111329,0.878907 0.04102,0.07813 -0.279297,0.542968 -0.910156,0.603516 -0.296875,-0.300781 -0.128906,0.126953 0.271484,0.277344 -0.396484,0.263671 -0.05273,-0.02539 -0.921875,-1.322266 0.04883,-0.765625 0.09375,-1.478514 1.144532,0.646484 0.386718,0.695311 0.15625,-0.08594 -0.320312,-0.580077 0.867187,0.0332 0.0078,-0.179688 -1.005859,-0.03906 -0.002,0 -0.736328,-0.416015 -0.509765,-0.2871093 0,-0.00195 -0.002,0 -0.353516,-0.6894561 0.990234,-0.3828126 z m -14.298828,0.023438 a 30,30 0 0 0 -0.08789,0.076172 l 0.05273,0.019531 0.03516,-0.095703 z m 17.457031,0.2402343 0.378907,0.03125 -0.5,0.9667969 -0.04883,-0.140625 0.169921,-0.8574219 z M 25.25,9.2863993 l 0.365234,0.7089843 0,0.00195 -0.15039,2.3671864 -1.00586,1.371094 -0.002,0 -0.197265,0.101562 -0.25,0 -0.392578,-0.242187 -0.589844,-0.365235 0,-0.002 -0.761719,-1.199219 0,-0.002 0.146484,-1.085937 0.621094,-0.158203 -0.144531,0.828125 0.177734,0.03125 0.164063,-0.939453 0,-0.0019 0.451172,-0.509765 0.398437,-0.4511718 0.002,-0.00195 L 25.25,9.2863993 Z m -2.291016,0.1816406 0.904297,0.2441406 -0.453125,0.5117185 -0.314453,0.355468 -0.419922,0.107422 -0.238281,0.06055 0.09375,-0.70703 0,-0.002 0.002,-0.0019 0.425781,-0.5683597 z m 6.31836,0.6972651 0.002,0 0.05469,0.15625 0,0.0019 -0.802734,1.548827 0.09961,-0.761718 0,-0.0019 0.646485,-0.943359 z m -6.947266,0.01563 -0.08203,0.613281 -0.171875,0.04492 -0.002,0 -0.496094,-0.195312 0.751953,-0.462891 z m -3.351562,0.306641 0.43164,0.412109 -0.277344,-0.02344 -0.21875,-0.111328 0.06445,-0.277344 z m 24.939453,0.191406 0.923828,1.955077 0,0.002 -0.09961,1.558594 -0.404297,0.664063 -0.07031,-0.02734 -0.68164,-0.884766 0,-0.002 -0.332032,-1.367187 0.664063,-1.898437 z m -24.800781,0.378905 0.501953,0.04297 0.523437,0.5 0.002,0.01172 0,0.002 -0.335937,0.425781 -0.002,0 -0.976563,0.259766 -0.125,-0.01172 -0.0918,-0.230469 0,-0.002 0.210938,-0.908203 0.292969,-0.08984 z m 0.789062,0.06641 0.583984,0.05078 -0.228515,0.291015 -0.355469,-0.341796 z m 14.804688,0.869141 1.111328,2.806641 0,0.0039 -0.298828,2.548828 0,0.002 -1.236329,1.84375 -1.017578,0.673828 -0.002,0 -1.117187,0.03906 -0.132813,0.107422 -0.535156,-1.617188 0,-0.002 0.78125,-3.34375 0,-0.002 1.007812,-1.261719 1.439454,-1.798828 z m -16.226563,0.226563 0.01953,0.04883 -0.06641,-0.0059 0.04687,-0.04297 z m 3.693359,0.0059 0.695313,1.097656 0.03125,0.542969 -0.621094,0.02344 0.0059,0.18164 0.625,-0.02539 0.0098,0.175781 -0.01563,0.03711 -0.0059,0 0.002,0.01172 -0.28125,0.669922 0.02344,0.0098 -0.152343,0.07813 -0.002,0 -0.583985,0.05469 0.02344,-0.01367 -0.353516,-0.632813 0.01172,-0.666015 0.0078,-0.498047 0,-0.002 0.580078,-1.044922 z m 3.373047,0.326172 0.869141,1.246094 0.0059,0.04687 0,0.002 -0.585937,0.388672 -0.002,0 -1.244141,0.05664 0.0078,-0.273437 0.302735,0 0,-0.179688 -0.296875,0 0,-0.002 0.93164,-1.269531 0.01172,-0.01563 z m 19.462891,0.236328 0.27539,0.201172 0.556641,0.40625 0.472656,0.863281 -0.01172,0.746094 -0.470703,0.03906 -0.697266,-0.265625 -0.214844,-0.568359 0,-0.002 0.08984,-1.419922 z m -16.96875,0.199219 -0.126953,1.585937 -0.04102,0.525391 -0.367187,-0.617188 -0.08398,-0.871093 -0.126953,-0.128907 0.746094,-0.49414 z m -4.982422,0.476562 0.855469,0.527344 0.002,0 0.0098,0.01563 -0.310547,0.160156 -0.533203,-0.27539 -0.02344,-0.427735 z m 4.082031,0.121094 0.107422,0.107422 0.0332,0.347656 -0.478515,-0.230469 0.33789,-0.224609 z m 24.226563,0.240234 1.503906,0.890625 1.951172,1.15625 0.07031,0.171875 -0.439453,0.453125 -0.5625,0.13086 -2.320312,0.539062 -0.613281,-0.107422 0,-0.002 0.402343,-3.177734 0.0078,-0.05469 z m -27.064453,0.191407 0.115234,0 -0.0078,0.283203 -0.05078,0.0039 -0.164062,-0.230469 0.107422,-0.05664 z m 32.228515,0.05469 -0.02734,0.02148 0.109376,0.142579 0.02344,-0.01758 a 30,30 0 0 0 -0.105469,-0.146484 z m -33.4375,0.0293 0.208985,0.107422 -0.203125,0.02539 -0.0059,-0.132813 z m 20.421875,0.05469 0.601563,0.783204 0.0098,0.259765 -0.0059,0.0078 -0.773438,0.498047 -0.117187,-0.0039 -0.136719,-0.65039 0,-0.002 0.398438,-0.841797 0.02344,-0.05078 z m -19.482422,0.002 0.111329,0.15625 -0.226563,0.0098 -0.103516,-0.05469 0.21875,-0.111328 z m -16.7070309,0.05859 a 30,30 0 0 0 -0.1230469,0.171875 l 0.1171876,0.0078 0.011719,-0.179688 -0.00586,0 z m 16.2597659,0.140625 0.002,0 0.109375,0.05859 -0.839844,0.427734 0.171875,-0.417968 0.556641,-0.06836 z m 2.121094,0.06641 -0.574219,1.068359 -0.31836,0.1875 -0.255859,-0.357422 0.02539,-0.847656 1.123047,-0.05078 z m 6.333984,0.769531 -0.447266,1.921875 -0.257812,1.099609 -0.619141,-0.09766 -0.644531,-0.623047 -0.667969,-0.234375 0.0059,-0.0293 0.002,-0.002 0,-0.002 0.982422,-1.128906 0.002,-0.002 1.644531,-0.902344 z m -7.5625,0.328125 0.179687,0.251953 -0.279297,0.164062 -0.113281,-0.0098 0.212891,-0.40625 z m 3.570312,0.04297 0.681641,0.470703 0,0.002 -0.248047,0.171875 -0.433594,-0.644531 z m -13.943359,0.111328 0.822266,1.085937 0.261718,1.292969 -0.326171,0.9375 0.02734,0.708984 -0.472656,-0.259765 -0.621094,-0.837891 -0.140625,-1.330078 0,-0.002 0.449219,-1.595703 z m 10.996094,0.04492 -0.01953,0.335937 -0.16211,-0.228515 0.181641,-0.107422 z m 30.160156,0.203125 0.806641,0.05273 1.146484,0.07422 0.308594,1.716797 0,0.002 -0.134766,0.292968 -0.164062,0.359376 -0.298828,-0.208985 -0.002,0 0,-0.002 -0.269531,-0.789062 -0.171875,0.05859 0.242188,0.703125 -0.744141,0.02539 -0.875,-2.123047 0.15625,-0.162109 z M 6.25,15.946554 A 30,30 0 0 0 6.15625,16.100851 L 6.6132812,16.460226 6.7246094,16.317648 6.25,15.946554 Z m 23.892578,0.169922 -0.863281,0.994141 -0.002,0.002 -0.13086,0.05469 -0.02148,-0.0078 -0.539062,-0.800781 0.333984,-0.232422 1.222656,-0.0098 z m 24.830078,0.109375 0.08398,0.207031 0.6875,1.666016 -0.410157,-0.265625 -0.09961,0.150391 0.630859,0.408203 0.111328,0.273437 -0.07227,1.234375 -0.04687,0.751953 -0.585938,0.521485 -0.43164,-0.513672 -0.332032,-1.003907 -0.175781,-0.529296 0,-0.002 0.05273,-0.5 0.207031,-2.003906 0,-0.002 0.380859,-0.392578 z m -0.572265,0.470703 -0.248047,2.410156 -0.896485,1.488282 -0.24414,0.404296 -0.002,0.002 -0.556641,0.40039 -0.710937,-0.65039 -0.832032,-2.806641 0.708985,-0.601563 2.78125,-0.646484 z m -5.115235,0.25 1.47461,0.259766 -0.07227,0.566406 -0.002,0.002 -0.195313,0.289063 -0.002,0.002 -0.683593,0.582031 -0.111329,0.09375 -1.623047,0.560547 -0.002,0 -1.238281,-0.369141 0.09375,-0.373047 0,-0.002 0.002,-0.002 0.861328,-1.029297 0.0039,-0.002 0.560546,-0.216797 0.933594,-0.361328 z m 1.652344,0.292969 0.433594,0.07617 -0.496094,0.421875 0.0625,-0.498047 z m -21.761719,0.128906 0.02344,0.0078 0,0.002 -0.01367,0.06445 -0.0098,-0.07422 z m 10.113281,0.464844 0.484376,0.394531 0.002,0 0.002,0.002 0.607422,0.757813 0,0.002 0.09766,0.820312 0.01367,0.111329 -0.619141,-0.291016 -0.002,-0.002 -0.457031,-0.589844 -0.142578,0.109375 0.388671,0.5 -0.166015,0.04102 -0.330078,-0.644532 0,-0.002 0.121093,-1.208984 z m 18.357422,0.107422 0.90625,0.980469 -0.751953,-0.103516 -0.421875,-0.292969 0.167969,-0.365234 0.09961,-0.21875 z m -6.888672,0.132812 0.002,0 0.292968,0.986328 0.517578,1.748047 -0.207031,1.289063 -1.474609,-0.03906 -0.002,0 -0.353516,-0.146484 0.0078,-0.0039 -0.367188,-0.650391 -0.08984,-0.720703 -0.0078,-0.07031 0.183594,-0.271484 1.361328,-2.003906 0.0039,-0.0039 0.132812,-0.113281 z m 6.06836,0.28711 0.326172,0.226562 -0.304688,0.667969 -0.703125,-0.660156 -0.08594,-0.208985 0.767578,-0.02539 z m -6.71875,0.265625 -0.81836,1.205078 0.291016,-0.535156 0.230469,-0.417969 0.296875,-0.251953 z m -3.388672,0.0078 -0.06055,0.248047 -0.01367,-0.0039 -0.140625,-0.197266 0.214844,-0.04687 z m 10.583984,0.05859 0.298828,0.207031 -0.539062,0.320313 0.240234,-0.527344 z m -16.80664,0.002 0.0098,0 -0.0059,0.01172 -0.0039,-0.01172 z m 15.65039,0.152344 0.429688,0.40039 0.07031,0.06641 -0.427734,0.02344 0.0098,0.181641 0.511718,-0.0293 -0.289062,0.632812 -0.002,0.002 -0.400391,0.355469 0.09766,-1.632812 z m 1.640625,0.152343 0.958985,0.128907 0.208984,0.226562 -0.269531,0.478516 0.15625,0.08789 0.242187,-0.427735 0.31836,0.345703 0.09375,0.277344 -0.232422,0.117188 -1.576172,-0.189454 -0.642578,-0.603515 0.742187,-0.441407 z m 1.240235,0.167969 0.03125,0.0039 -0.0098,0.01758 -0.002,0 -0.01953,-0.02148 z m -4.810547,0.185547 0.449219,1.357422 0,0.0039 -0.04102,0.472656 -0.0098,0.113282 0,0.002 -0.449218,0.06445 -0.791016,-0.365234 -0.07617,0.164062 0.650391,0.300781 -0.59961,0.328125 0.08594,0.158204 0.744141,-0.404297 0.417968,-0.06055 -0.02344,0.261718 -0.283203,0.595704 -0.859375,-0.04687 -0.002,0 -0.396485,-0.363282 0.132813,-0.839843 1.050781,-1.742188 z m -19.978516,0.0957 -0.08984,0.6875 -0.03125,0.246094 -0.705079,0.699219 -0.75,0.248047 -0.292968,-0.261719 0.474609,-0.216797 0.519531,-0.824219 0.683594,-0.453125 0.191406,-0.125 z m -1.109375,0.609375 -0.410156,0.652344 -0.410156,0.185547 -0.230469,-0.693359 0,-0.002 0.138672,-0.111328 0.912109,-0.03125 z m 7.691406,0.01367 0.603516,0.679688 0.06055,0.542968 -0.166016,-0.117187 -0.002,-0.002 -0.515625,-0.933594 0,-0.002 0.01953,-0.167969 z m 16.978516,0.167969 0.21875,0.02539 1.226563,0.148437 0.509765,0.451172 0,0.002 0.367188,1.076172 0,0.002 -0.1875,0.679687 -0.002,0 -0.375,-0.07031 -1.101563,-0.945312 -0.65625,-1.369141 z m 1.757813,0.04883 0.07813,0.228516 -0.19336,-0.169922 0.115235,-0.05859 z m -3.111329,0.08203 0.06836,0.990235 -0.244141,0.451171 -0.263672,-0.589843 0.02734,-0.484375 0,-0.002 0.03125,-0.02734 0.380859,-0.337891 z m -7.560546,0.02148 0.0039,0.02539 0,0.002 -0.832031,0.589844 0.08398,-0.195312 0.744141,-0.421875 z m -0.04883,0.285156 -0.07227,0.550781 -0.06836,-0.111328 -0.154296,0.09375 0.183593,0.300781 -0.02734,0.210938 -0.4375,0.02734 0.01172,0.179688 0.400391,-0.02539 -0.04102,0.3125 0,0.002 -0.179687,0.226563 -0.002,0 -0.798828,-0.253906 -0.361329,-0.414063 0.375,-0.265625 0.002,0 0.152343,0.06445 0.105469,-0.248046 0,-0.002 0.91211,-0.648437 z m 7.005859,0.230469 -0.01758,0.296875 -0.25586,0.322265 -0.179687,-0.21289 0.453125,-0.40625 z m -1.011719,0.02148 0.253906,0.304688 -0.285156,0.04102 0.03125,-0.345703 z m -3.103516,0.05273 0.576172,0.529297 -0.75,0.53711 0.07031,-0.435547 0.103515,-0.63086 z m -2.759765,0.08398 0.02734,0.208984 0,0.002 -0.07422,0.203125 -0.0059,-0.0078 0.05273,-0.40625 z m 3.988281,0.197265 -0.07227,0.466797 -0.0098,0.05859 -0.285156,-0.261719 0.367187,-0.263672 z m -20.61914,0.01758 0.06836,0.0625 -0.08398,-0.0059 0,-0.002 0.01563,-0.05469 z m 22.800781,0.128907 -0.236328,0.697265 -0.144532,-0.347656 0.02734,-0.298828 0.353516,-0.05078 z m 0.753906,0.002 0.230469,0.509766 -0.353516,-0.15625 -0.08008,-0.0957 0.203125,-0.257812 z m -0.591797,0.07813 0.002,0 0.150391,0.181641 -0.121094,0.154296 -0.251953,0.314454 0.220703,-0.650391 z m -6.195312,0.01172 0.173828,0.304687 -0.210938,-0.08594 -0.02734,-0.04297 0.06445,-0.175781 z m 3.333984,0.134765 0.402344,0.367188 -0.115235,0.728515 -0.679687,0.820313 -0.650391,0.361328 -0.08203,-0.369141 0.167969,-1.044922 0,-0.0039 0.002,-0.002 0.09961,-0.244141 0.855469,-0.613281 z m 4.099609,0.06055 0.01367,0.19336 0,0.002 -0.04687,0.0918 -0.113281,-0.01367 0.146484,-0.273438 z m -0.966797,0.117188 0.002,0 0.05078,0.06055 0.002,0.002 0,0.002 0.03711,0.345703 -0.36914,0.175781 -0.179688,-0.0098 0.457031,-0.576172 z m 2.908204,0.05469 0.958984,0.822266 0.253906,0.716797 0.02734,-0.0098 -0.07227,0.263672 0,0.002 -0.392578,0.429687 -0.277344,-0.201171 -0.455078,-0.900391 0,-0.002 -0.04297,-1.121094 z m -9.490235,0.01563 0.002,0 0.628907,0.259766 -0.742188,0.271484 -0.002,0 -0.06445,-0.173828 0.01367,-0.09961 0.04102,0.01563 0.09766,-0.271485 0.02539,-0.002 z m 6.830078,0.101563 0.177735,0.07813 0,0.002 -0.002,0 -0.158203,0.07617 -0.01758,-0.15625 z m -1.160156,0.0098 0.146485,0.351563 -0.06836,0.02148 -0.002,0 -0.248047,-0.01367 0.171875,-0.359375 z M 53,22.149679 l 0.3125,0.287109 0.169922,0.621094 -0.322266,-0.02539 -0.01563,0.179687 0.388672,0.03125 0.111328,0.40625 0,0.002 -0.183593,0.660156 -0.177735,-0.160156 -0.269531,-0.978515 -0.111328,-0.404297 0,-0.002 L 53,22.149679 Z m 3.210938,0.01172 0.002,0 0.01758,0.0078 0.002,0 0.08203,0.185547 -0.244141,0.478516 0.03125,0.169922 -0.1875,-0.148438 -0.05859,-0.523437 0.355469,-0.169922 z m 0.330078,0.146484 0.03711,0.01563 0.273437,-0.0078 0.244141,0.304687 0.0039,0.365235 -0.490234,-0.414063 -0.0957,-0.21289 0.02734,-0.05078 z m -0.857422,0.105469 0.03125,0.283203 -0.234375,-0.185547 0.203125,-0.09766 z m -6.994141,0.01953 0.01563,0.04492 -0.07031,0.02539 0.05469,-0.07031 z m 4.824219,0.05078 0.693359,0.03906 -0.0059,0.01172 -0.115234,0.03516 0.05273,0.171875 0.447266,-0.136719 -0.69336,0.486328 -0.002,0 -0.216797,-0.01758 -0.160156,-0.589843 z m 2.894531,0.08203 0.0332,0.07227 -0.128906,0.511719 -0.05469,-0.289062 0.150391,-0.294922 z M 3.2519531,22.747335 a 30,30 0 0 0 -0.044922,0.175782 l 0.3300782,0.05859 0.03125,-0.177734 -0.3164063,-0.05664 z m 56.4003909,0.0078 0.232422,0.04297 -0.0957,0.345703 -0.136718,-0.388672 z m -6.882813,0.207031 0.337891,1.234375 -0.402344,1.025391 -0.8125,0.589843 -0.09375,-0.07227 -0.363281,-1.642578 0.726562,-0.404297 0.607422,-0.730469 z m -49.3749998,0.15625 -0.070312,0.166016 0.6503906,0.277343 0.4238281,0.638672 -0.054687,0.923828 0,0.002 -0.00195,0.002 -1.2324219,1.455078 -0.7558594,0.353515 a 30,30 0 0 0 -0.033203,0.214844 l 0.2167969,-0.101562 0.6367187,-0.296875 0.00195,0 1.5097657,0.371093 -0.058594,0.207032 0,0.002 -0.7597656,0.884765 -0.068359,0.08008 -0.2226562,-0.84961 -0.1738281,0.04492 0.2597656,0.994141 0,0.002 -0.21875,0.939453 -0.1542969,0.664062 -1.1738281,-1.130859 a 30,30 0 0 0 -0.011719,0.238281 l 1.1523438,1.109375 0,0.002 0.00195,0.002 0.074219,0.52539 -1.328125,0.533203 a 30,30 0 0 0 0.00586,0.195313 L 3.3574207,31.022992 3.6054676,32.76518 2.0175769,31.75932 a 30,30 0 0 0 0.00781,0.216797 l 1.6152344,1.025391 0.037109,0.261718 0,0.002 -1.171875,3.421874 a 30,30 0 0 0 0.076172,0.339844 l 0.6816407,-1.992187 0.5800781,-1.701172 0.00195,-0.002 0.1523438,-0.103516 0.00195,0 0.53125,0.337891 1.2441406,2.685547 0,0.002 0.019531,0.623047 -3.1894531,0.251953 a 30,30 0 0 0 0.039062,0.177734 l 3.15625,-0.25 0.044922,1.480469 0,0.002 -1.0820312,1.398437 -0.00195,0 -1.3183594,0.416016 a 30,30 0 0 0 0.058594,0.171875 l 1.2050781,-0.380859 -0.1503906,1.115234 0.125,0.417969 -0.75,0.144531 a 30,30 0 0 0 0.058594,0.177734 L 4,41.991476 4.7324219,41.850851 4.8671875,42.303976 4.7480469,43.040304 4.5078125,43.192648 a 30,30 0 0 0 0.076172,0.166016 l 0.2929687,-0.185547 0.234375,-0.148438 0.7128907,0.05078 0.013672,-0.179687 -0.6015625,-0.04492 0.3007813,-0.552734 -0.1582032,-0.08594 -0.359375,0.654297 0,0.002 -0.066406,0.04102 0.097656,-0.617188 -0.3105468,-1.046875 0.1640625,-1.195312 1.0253906,-1.328125 0.8183594,1.263672 0.00195,0.002 0.1972656,1.052734 0.484375,0.642578 0.1445313,-0.109375 -0.4589844,-0.607422 -0.1582031,-0.845703 1.03125,0.554688 0.00195,0.002 0.1640625,0.375 0,0.002 -0.6054688,0.648438 -0.734375,0.251953 0.058594,0.169921 0.5703125,-0.195312 -0.3066406,0.769531 0.1621093,0.808594 0.1777344,-0.03711 -0.1523437,-0.753907 0.3515625,-0.884765 0,-0.002 0.5566406,-0.595703 0.00195,0 0.076172,0.175781 0.1660156,-0.07227 -0.109375,-0.248047 0.1445313,-0.154297 0.3652343,0.921875 0,0.875 0.1796876,0 0,-0.664062 0.3632812,0.388672 0.1308594,-0.121094 -0.5058594,-0.544922 -0.4101562,-1.035156 0.00195,-0.03125 0.2539062,0.0098 0.00781,-0.179688 -0.2460937,-0.0098 0.099609,-1.191406 0.7480469,0.28711 0.4296875,0.679687 0.152343,-0.0957 -0.4628898,-0.730469 -0.8847657,-0.339844 -0.00195,0 -0.7675781,-1.287109 1.3046875,0.398438 0.00195,0 0.6425781,0.730468 0.00195,0.002 0,0.002 0.234375,0.71875 0.171875,-0.05664 -0.19336,-0.589844 0.375,0.07422 0.002,0 0.544922,0.505859 -0.03711,0.04883 0.144531,0.107422 0.02539,-0.0332 0.345703,0.320313 0.822266,2.041015 0.02539,0.853516 0.0293,1.056641 0,0.002 -0.441406,1.019531 -0.554688,0.18164 0.136719,-0.792968 0.472656,-0.634766 -0.144531,-0.107422 -0.498047,0.667969 -0.166015,0.964844 0,0.002 -0.654297,0.875 -0.7910157,0.433594 -0.00195,0 -0.2695312,-0.07813 -0.082031,-0.529297 -0.1777344,0.02734 0.068359,0.447265 -0.2011719,-0.05859 -0.048828,0.173829 0.28125,0.08203 0.029297,0.191406 -0.2734375,0.527344 -0.7519531,0.144531 0.033203,0.175781 0.6132812,-0.117187 -0.2851562,0.550781 -0.6289063,0.548828 -0.2558594,0.222656 a 30,30 0 0 0 0.1054688,0.148438 l 0.00195,-0.002 0.8886719,-0.773438 1.3554688,-0.146484 0.002,0 0.002,0 0.722656,0.201172 0.04687,-0.173828 -0.570312,-0.158204 0.417968,-0.333984 0.117188,0.242188 0.162109,-0.07813 -0.134765,-0.28125 0.177734,-0.142579 -0.113281,-0.140624 -0.146485,0.117187 -0.101562,-0.210937 0,-0.002 0.1875,-0.78125 0,-0.002 0.115234,-0.09961 0.002,0 0.394531,-0.0332 -0.01563,-0.179688 -0.146485,0.01172 0.480469,-0.412109 -0.02734,0.777343 -0.332031,0.794922 0.166016,0.06836 0.34375,-0.822266 0.03711,-1.001953 0.146484,-0.337891 0.06445,-0.02148 -0.02344,-0.07227 0,-0.002 0.232422,-0.537109 0.146484,-0.339844 0.791016,1.046875 0.173828,1.224609 0,0.002 -0.201172,0.886718 0.251953,0.753906 0.171875,-0.05664 -0.236328,-0.707031 0.152344,-0.675782 0.476562,0.556641 0.136719,-0.117188 -0.576172,-0.675781 -0.146484,-1.050781 0.814453,0.490234 0.419922,0.792969 -0.04297,0.769531 0.179688,0.01172 0.04687,-0.822265 -0.386719,-0.730469 0.775391,-0.03516 -0.0078,-0.179687 -0.892578,0.03711 -0.002,0 -0.958984,-0.578125 -0.871094,-1.152343 0,-0.002 -0.01367,-0.501953 -0.03516,-1.185547 0.708984,0.712891 0.214844,0.824219 0.173828,-0.04492 -0.183594,-0.707031 0.25,0.04687 0.683594,0.130859 0.002,0.002 0.583984,0.394532 0.09961,-0.148438 -0.423828,-0.287109 0,-0.002 0.570312,-0.119141 -0.03711,-0.175781 -0.761719,0.158203 -1.044922,-0.199219 -0.855469,-0.863281 -0.002,-0.002 -0.771484,-1.914063 1.505859,0.173828 0.966797,0.494141 0.345703,0.763672 0.164063,-0.07422 -0.3125,-0.691406 0.689453,-0.154297 -0.03906,-0.175781 -0.765625,0.169921 -0.820312,-0.417968 0.732422,-0.355469 -0.08008,-0.162109 -0.869141,0.421875 -1.140625,-0.13086 -0.476562,-0.05469 -0.002,0 -0.351562,-0.326172 0.373047,-0.492188 0.08398,-0.816406 0.648438,0.326172 0.392578,0.640625 0.154297,-0.09375 -0.333985,-0.546875 0.859375,-0.125 0.002,0 0.716797,0.189453 0.04687,-0.173828 -0.5625,-0.148437 0,-0.002 0.535157,-0.423828 -0.111329,-0.140625 -0.658203,0.521485 -0.373047,0.05469 -0.58789,0.08594 -0.002,0 -0.707032,-0.355469 0.01367,-0.128906 -0.07422,-0.119141 0.654296,-0.417969 0.765625,0.09375 0.02344,-0.179687 -0.6875,-0.08399 0.238281,-0.68164 -0.169922,-0.06055 -0.265625,0.757812 0,0.002 -0.652343,0.416016 -0.002,0 -0.529296,-0.853516 0,-0.002 -0.02344,-0.125 -0.234375,-1.300781 0.167969,-0.0078 0.0059,0 0.857422,0.160156 0.707031,0.607422 0.375,0.726562 0.160156,-0.08203 -0.390624,-0.757813 -0.621094,-0.537109 0.226562,-0.06055 0.002,0 1.570313,0.683594 0.002,0 0,0.002 0.869141,1.359375 -0.103516,0.902344 -0.347656,0.658203 0.158203,0.08398 0.365234,-0.689453 0.0957,-0.839844 1.205078,0.585938 0.566407,0.935547 0.002,0.002 0.109375,0.697266 0.177734,-0.02734 -0.07617,-0.494141 0.59375,0.451172 0.109375,-0.144531 -0.759765,-0.576172 -0.146485,-0.242188 -0.351562,-0.580078 0.867187,0.002 0,-0.181641 -1.007812,-0.002 -0.310547,-0.150391 -0.990234,-0.482422 -0.002,0 0,-0.002 -0.798828,-1.25 1.046875,-0.0098 0.953125,0.449219 0.002,0.002 0.49414,0.669922 0.146484,-0.107422 -0.417968,-0.564453 0.580078,-0.07226 -0.02344,-0.177735 -0.707031,0.08594 -0.002,0 -0.986328,-0.466797 -1.230469,0.01172 -0.002,0 -1.371094,-0.597657 0.101563,-0.02734 -0.04687,-0.173829 -0.320313,0.08594 -0.002,0 -0.01367,-0.0059 1.884766,-0.84961 1.978516,0.316407 0.002,0 0.708984,0.800781 0,0.002 0.267578,0.822266 -0.02734,0.71875 0.181641,0.0078 0.02734,-0.751953 -0.216797,-0.666016 0.486328,0.242188 0.08203,-0.16211 -0.664062,-0.332031 -0.652344,-0.734375 1.351562,-0.646484 0.820313,0.109375 0.02344,-0.179688 -0.701171,-0.0918 0.470703,-0.691406 0.724609,-0.371094 -0.08203,-0.160156 -0.765625,0.390625 -0.564453,0.830078 -1.4375,0.685547 -1.890625,-0.302734 0.03711,-0.07422 0.595703,0.02539 0.0078,-0.181641 -0.515625,-0.01953 0.310547,-0.625 0.351562,0.0918 0.04687,-0.175782 -0.316406,-0.08398 0.214844,-0.431641 0.03125,-0.0625 0.002,-0.002 0.779297,-0.738281 0.691406,-0.275391 -0.06641,-0.167968 -0.72461,0.289062 -0.669922,0.634766 -0.02344,-0.732422 0.449219,-0.699219 -0.150391,-0.09766 -0.480469,0.746094 0.0293,0.96875 0,0.002 -0.259766,0.519531 -0.30664,-0.08008 -0.886719,0.210937 -0.996094,-0.167968 0.113282,-0.19336 0.06445,0.0039 0.0078,-0.130859 0.353516,-0.607422 0.855469,-0.320312 0.002,0 0.693359,0.167969 0.04102,-0.175782 -0.601563,-0.146484 0.308594,-0.535156 -0.15625,-0.08984 -0.353516,0.611328 -0.912109,0.341797 -0.150391,0.257812 0,0.002 -0.625,0.373047 -0.28125,-0.02148 0.341797,-0.775391 0.570313,-0.402343 -0.103516,-0.146485 -0.478516,0.335938 -0.117187,-0.591797 -0.177734,0.03516 0.138671,0.701172 -0.002,0.0039 -0.363281,0.824219 -0.414062,-0.0332 -0.002,0 -0.505859,-0.476563 -0.199219,-0.189453 0.123047,-0.05273 0.002,0 0.378907,0.002 0,-0.162109 0.169921,-0.07227 0.71875,0.179687 0.04297,-0.175781 -0.77539,-0.193359 -0.570313,0.240234 -0.002,0 -0.255859,-0.002 -0.0332,-0.220703 0.267579,-0.53125 0.02344,-0.0078 0.761719,0.152343 0.03516,-0.175781 -0.730469,-0.146484 0.07617,-0.152344 0.06836,-0.134766 0.277343,-0.115234 0.126953,0.0059 0.666016,0.521485 0.111328,-0.140625 -0.71289,-0.558594 -0.158204,-0.0059 0.476563,-0.400391 -0.117187,-0.138672 -0.615235,0.515625 0.01953,-0.566406 -0.18164,-0.0078 -0.01953,0.580078 -0.4375,-0.01758 0.3125,-0.580078 -0.01367,-0.0078 0.158203,-0.03516 -0.03906,-0.175781 -0.611328,0.134766 0.148438,-0.574219 -0.173829,-0.04492 -0.183593,0.697266 -0.1679688,0.203125 -0.066406,-0.279297 -0.1757813,0.04297 0.048828,0.201171 -0.066406,0.0059 0.027344,0.310547 0,0.002 -0.1191406,0.144531 -0.00195,0 0,0.002 -0.4570313,0.126953 -0.015625,-0.0039 -0.00195,0.0098 -0.00195,0 -0.8144531,0.228515 -0.328125,0.0918 -0.00195,0 -0.6816406,-0.15625 0.2050781,-0.335937 0.2695313,-0.439453 0,-0.002 0.484375,-0.369141 0.8417968,-0.640625 1.2617185,-0.3125 0.724609,0.333984 0.07422,-0.164062 -0.61914,-0.28711 0.724609,-0.576172 0.150391,-0.333984 0.697265,0.41211 0.34375,0.759765 0.164063,-0.07617 -0.296875,-0.654297 1.035156,0.01953 0.65625,0.521484 0.111328,-0.140625 -0.703125,-0.558594 -1.214844,-0.02539 -0.716797,-0.423829 0.132813,-0.294921 -0.164063,-0.07422 -0.125,0.277344 -0.351562,-0.208985 1.056641,-0.453125 0.958984,-0.0059 0.199219,-0.002 0.002,0 0.634765,0.320312 0.08008,-0.160156 -0.480469,-0.244141 0.605469,-0.255859 -0.07031,-0.166016 -0.765625,0.324219 -0.002,0 -1.009766,0.0059 0.53125,-0.791015 0.002,-0.002 0.763672,-0.492188 -0.09766,-0.152344 -0.597656,0.384766 0.117187,-0.560547 -0.177734,-0.03711 -0.154297,0.751953 -0.002,0 0,0.0039 -0.615235,0.914063 -0.04101,0.01758 -1.154297,0.496094 -0.002,0 -0.9062498,-0.05859 -0.011719,-0.628906 -0.087891,-0.181641 0.2480469,-0.306641 0.00195,-0.002 0.00195,0 0.8554689,-0.486328 -0.08789,-0.15625 -0.6679695,0.376953 0.3574225,-1.076172 0.564453,-0.441406 -0.111328,-0.142578 -0.458985,0.359375 -0.002,0 -0.07226,-0.5625 -0.1796883,0.02148 0.091797,0.701172 0,0.002 -0.4296916,1.28711 -0.00195,0.0039 -0.1972656,0.242188 -0.1757813,-0.357422 -0.1621094,0.07813 0.2109376,0.433593 -0.6503907,0.800782 -0.7167969,0.423828 0.097656,-0.169922 -0.1582031,-1.029297 -0.1796875,0.02734 0.1503906,0.966797 -0.2246094,0.390625 -0.5039062,0.298828 -0.2597657,-0.330078 0.013672,-1.308594 0,-0.002 L 6.9726556,25.841085 7.578125,24.991476 8.6171875,24.571554 9.21875,23.897726 9.3320312,23.155538 9.1542969,23.128195 9.0488281,23.817648 8.5097656,24.41921 7.640625,24.770773 7.7871094,24.061788 7.609375,24.024679 l -0.1738281,0.853516 0,0.002 -0.00195,0 0,0.002 -0.3671907,0.517484 -0.3046874,0.423828 -0.578125,-0.953125 -0.058594,-0.93164 -0.3417969,-0.767578 -0.1640625,0.07227 0.328125,0.738281 0.058594,0.94336 0.6601562,1.08789 0,0.002 -0.00977,0.755859 -0.5292969,-0.09375 0.4257813,-0.621094 -0.1484375,-0.101562 -0.4902344,0.71289 -0.90625,0.34961 -0.095703,-0.02344 0.1035156,-0.361328 0.5625,-0.421875 L 5.46875,26.065695 4.8574219,26.524679 4.7363281,26.95046 3.328125,26.604757 4.1679688,25.61257 4.4863281,25.235617 5.5351562,24.772726 5.4628906,24.608664 4.53125,25.01882 4.5820312,24.149679 4.09375,23.415304 3.3945312,23.118429 Z m 47.7851568,0.117188 -0.0332,0.201171 -0.0059,-0.107421 0.03906,-0.09375 z m 2.544921,0.02148 0.07422,0.0059 -0.03711,0.128907 -0.03711,-0.134766 z m -0.08594,1.083984 0.06641,0.191407 -0.0957,-0.08594 0.0293,-0.105469 z m -0.94336,1.111329 0.01953,0.714843 -0.105469,0.210938 -0.570313,-0.449219 0.65625,-0.476562 z m -43.3300776,0.677734 0.035156,0.07031 0.011719,0.574219 -0.5429688,-0.0332 0.4960938,-0.611328 z m -3.3828125,0.703125 0.671875,0.121094 -0.00195,0.21289 -0.6171876,-0.277343 -0.074219,0.166015 0.6542969,0.292969 0.033203,0.04297 0,0.03125 -0.00586,0.523437 0,0.002 L 6.3417969,28.368429 6.1660156,28.311788 5.2949219,27.30007 5.5,27.239523 5.4492188,27.065695 5.1816406,27.14382 5.9824219,26.833273 Z m 2.7285156,0.07813 0.00195,0 0.7011719,0.04492 0.00781,0.382812 0,0.002 -0.1113281,0.201172 -0.5898438,1.06836 -1.2070312,0.919921 -0.125,-1.447265 0.3398437,-0.591797 0.9824219,-0.580078 z m 0.8847656,0.05664 0.3554688,0.02344 -0.3515625,0.212891 -0.00391,-0.236329 z m 0.6191409,0.04102 0.27539,0.01758 0.501954,0.296875 -0.140626,0.310547 -0.791015,0.628906 -1.0898439,0.269532 0.609375,-1.105469 0.00195,0 0.6484379,-0.394531 -0.01563,-0.02344 z m -5.3515628,0.158203 0.099609,0.02539 0.00977,0.01172 -0.1308593,0.03711 0.021484,-0.07422 z m 0.2382813,0.1875 0.00195,0 0.921875,1.070313 0,0.002 0.025391,0.351562 -0.9648437,1.353516 -0.00195,0.002 -1.5800782,0.634766 -0.070312,-0.494141 0,-0.002 0,-0.002 0.3242187,-1.392578 0.080078,-0.347657 0,-0.002 0.9199219,-1.072265 0.00391,-0.002 0.3398437,-0.09961 z m 1.7265625,0.263672 0.1054688,0.132813 -0.1074219,0.06445 0.00195,-0.197266 z m 0.5859375,0.05859 -0.1289063,0.226562 -0.080078,-0.101562 0.2089844,-0.125 z m -0.3671875,0.216797 0.1621094,0.205078 0.1367187,1.582031 -0.4609375,0.751953 -0.5820312,-0.634765 0,-0.002 -0.068359,-0.964844 0,-0.002 0.1777344,-0.25 0.5234375,0.167968 0.054687,-0.171875 -0.4667969,-0.15039 0.2714844,-0.38086 0.2519531,-0.15039 z m -0.8339844,0.623047 0.019531,0.0059 -0.017578,0.02344 -0.00195,-0.0293 z m -0.1425781,0.544921 0.052734,0.75586 0,0.002 -0.2011719,0.470703 -0.6269531,-0.140625 0,-0.002 0.7753906,-1.085938 z m 4.2734375,0.595704 -0.302734,0.5625 0,0.002 -0.002,0 -0.1874995,0.136719 -0.054687,-0.01563 0.00781,-0.04102 -0.064453,-0.265625 0.064453,-0.07813 0.1835937,-0.222656 0.00195,0 0.3535158,-0.07813 z m -4.1015625,0.341796 0.00195,0 0.421875,0.460938 -0.5644531,-0.128906 0.140625,-0.332032 z m -1.0917969,0.302735 0.6992188,0.158203 -0.1425782,0.337891 -0.71875,0.425781 0.09375,0.154297 0.6367188,-0.376953 0.00195,0 0.1757813,0.720703 -0.6503906,0.439453 -1.2519532,0.849609 -0.1875,-0.117187 0,-0.002 L 3.6113281,31.524679 3.53125,30.954367 5.1503906,30.302023 Z m 4.9863284,0.07227 0.53125,0.02148 -0.273438,0.111328 -0.320312,-0.08789 0.0625,-0.04492 z m -0.7500002,0.04297 0.00195,0 0.097656,0.02734 0.00977,0.113281 -0.2949219,-0.08789 0.1855469,-0.05273 z m -3.3574219,0.08398 0.7148437,0.162109 0,0.002 -0.5019531,0.820313 -0.00195,0.002 -0.1835938,0.125 -0.00195,0 -0.1816406,-0.744141 0,-0.002 0.035156,-0.08008 0.1210938,-0.285156 z m 3.8574219,0.05273 0.5195312,0.142578 0.160156,-0.06641 -0.105468,0.21289 -0.002,0 -0.4999996,0.164063 -0.00195,0 -0.2363281,-0.3125 0.00391,-0.02148 0.1621094,-0.119141 z m -1.0097657,0.0078 0.4902344,0.146485 -0.5234375,0.380859 -0.00195,0 -0.4785157,0.07031 -0.00195,0 -0.4433593,-0.330078 0.9589843,-0.267579 z m -1.8808593,0.160157 0.6816406,0.154297 0.4316406,0.320312 -0.1210938,0.01758 -1.5019531,0.21875 0.3574219,-0.583984 0.1113281,0.414062 0.1738281,-0.04687 -0.1328124,-0.49414 z m 2.5078124,0.109375 -0.082031,0.380859 -0.076172,0.09766 -0.2949219,-0.148437 0.453125,-0.330078 z m 0.1660157,0.09375 0.1074219,0.140625 -0.1484376,0.04883 0.041016,-0.189453 z m 0.6757811,0.144531 -0.134765,0.269531 -0.136719,-0.179687 0.271484,-0.08984 z m -0.4531249,0.148437 0.2480469,0.326172 0,0.002 0.02734,0.177734 -0.6582034,-0.332031 0.029297,-0.03711 0.021484,-0.02734 0.3320312,-0.109376 z m -1.0292969,0.05078 0.3671876,0.185547 -0.171875,0.21875 -0.4902344,-0.361329 0.2949218,-0.04297 z m -0.5488281,0.08008 0.00195,0 0.6289063,0.466797 -0.4160156,0.527343 0,0.002 -0.90625,0.523437 -0.4882813,0.283203 -0.00195,0 -0.3808594,0.03906 -2.1269531,0.220703 -0.00195,0 -0.4609375,-0.292969 1.6757812,-1.138672 -0.1777344,0.457031 0.1699219,0.06445 0.2714844,-0.701172 0.2402344,-0.164063 0.00195,0 0.9863281,-0.144531 0.984375,-0.142578 z m 1.0800781,0.1875 0.5371094,0.271484 -0.109375,-0.01367 -0.5742187,-0.07031 0.1464843,-0.1875 z m -0.1914062,0.365234 0.5292969,0.0625 0.2011719,0.02539 L 9.625,32.20046 9.3242188,32.235617 9.203125,31.901632 Z m -0.1621094,0.08594 0.097656,0.269531 -0.34375,0.04102 0.2460937,-0.310547 z m 1.1484374,0.04492 0.03516,0.0625 0,0.002 0.03711,0.248047 -0.386719,-0.0957 0.314453,-0.216796 z m 0.294922,0.162109 0.617187,0.580078 0,0.002 0.02734,0.216797 -0.294922,0.150391 -0.248046,0.126953 -0.103516,-0.6875 0.01367,0.0039 0.05664,0.103516 0.158204,-0.08594 -0.226563,-0.410156 z m -0.8339844,0.185547 0.00391,0 0.6367194,0.15625 0.130859,0.851562 -0.275391,0.462891 -0.8476562,0.04297 -0.00195,0 -1.9199219,-0.673828 1.2402344,-0.71875 0.00195,0 0.5839844,-0.06836 0.15625,0.427735 0,0.002 -0.1972656,0.845703 0.1757812,0.04101 L 9.5,33.05007 9.9433594,33.571554 10.080078,33.454367 9.5332031,32.807882 9.3886719,32.411398 9.6503906,32.380148 Z m 47.2734374,0.103516 -0.1875,0.93164 0,0.0039 -0.002,0.002 -0.291016,0.449218 -0.230468,0.355469 -0.376953,-0.78125 -0.164063,0.07813 0.439453,0.908203 -0.0039,1.445313 0,0.002 -0.417969,0.68164 -0.359375,0.583985 -0.464844,-0.9375 -0.0098,-1.054688 0.384765,-0.738281 -0.158203,-0.08398 -0.326172,0.621093 -0.316406,-0.490234 -0.152344,0.09766 0.386719,0.597656 0,0.002 0.0098,1.091796 0.548828,1.103516 0,0.002 0.06055,1.494141 -0.07031,-0.08008 -0.136718,0.11914 0.21875,0.251954 0,0.01562 -1.585938,-1.326171 0,-0.002 -0.03906,-0.126954 -0.539063,-1.792968 0.158203,-0.376954 0.253906,-0.609374 0.625,-0.59961 0.658204,-0.289062 -0.07227,-0.166016 -0.689453,0.302734 -0.503907,0.486328 0.0059,-0.544921 -0.179688,-0.002 -0.0098,0.742187 0,0.002 -0.378907,0.904297 -0.101562,-0.08008 -1.068359,-0.857422 -0.259766,-0.783203 -0.169922,0.05664 0.220703,0.669922 -0.828125,-0.121093 -0.648437,-0.490235 -0.107422,0.144532 0.685547,0.517578 0.992187,0.146484 1.244141,0.996094 0.552734,1.832031 -0.08398,0 -0.238281,-0.546875 -0.166016,0.07227 0.205078,0.472656 -0.697266,-0.0078 -0.07031,-0.355468 -0.175781,0.03516 0.0625,0.318359 -0.556641,-0.0059 -0.002,0 -1,-0.378906 -0.550781,-0.501953 -0.121094,0.132812 0.574219,0.525391 0.865234,0.328125 -0.650391,0.339843 -0.824218,-0.101562 -0.02148,0.179687 0.878907,0.107422 0.857422,-0.449218 0.002,0 0.583984,0.0059 0.06055,0.310547 0.576172,0.705078 0.002,0.002 0,0.002 0.152344,0.527344 0.126953,0.439453 -0.222656,-0.01758 -0.02344,-0.05859 -0.119141,0.04883 -0.703125,-0.05273 -0.662109,-0.630859 -0.152344,-0.697266 -0.175781,0.03906 0.132812,0.605469 -0.617187,-0.04492 -0.01367,0.179688 0.705078,0.05078 0.705078,0.673828 0.296875,0.02344 0.002,0 0.609374,0.396484 0.101563,0.263672 -0.841797,0.03125 -0.615234,-0.339844 -0.08594,0.158203 0.509766,0.283203 -0.480469,0.363282 0.109375,0.144531 0.56836,-0.429688 0.693359,-0.02539 0.212891,-0.0078 0.15039,0.388672 0,0.002 -0.01172,0.03711 L 53.10163,42.218333 53,42.128195 l -0.002,-0.002 -0.162109,-0.339844 -0.146485,0.06836 -0.138672,-0.121093 -0.15039,-0.72461 -0.177735,0.03711 0.164063,0.785156 0.464843,0.40625 0.002,0.002 0,0.002 0.109375,0.228516 -0.183594,0.126953 -0.595703,-0.0098 -0.01758,-0.01758 -0.19336,-0.751953 -0.175781,0.04687 0.1875,0.720703 -0.322266,-0.0059 -0.220703,-0.197266 -0.05273,-0.119141 0.179687,-0.826172 -0.175781,-0.03906 -0.191406,0.884766 0.06445,0.146484 -0.570313,-0.255859 -0.07227,0.164062 0.732422,0.332031 -0.519531,0.228516 0.07227,0.166016 0.529297,-0.234375 0.002,0 0.173828,0.40039 -0.658203,-0.02734 0,0.01562 -0.101562,-0.128906 -0.142578,0.113282 0.390624,0.49414 -0.582031,0.113281 0.03516,0.177735 0.707031,-0.140625 0.002,0 0.253906,0.0625 -0.222656,0.18164 0.115234,0.140625 0.160156,-0.130859 0.0332,0.05664 0.269531,-0.160157 0.183594,0.04297 0.002,0.002 0.314453,0.355469 0.002,0.01563 0.0098,-0.002 0.789062,0.890625 0.158203,0.683594 -0.908203,-0.08984 -0.002,0 -1.486328,-0.751953 0,-0.002 -0.002,0 -0.0918,-0.111329 -0.736328,-0.886718 -0.01563,-0.796875 -0.181641,0.0039 0.01367,0.681641 -0.835937,-0.400391 -0.365235,0.0098 0.06641,-0.804688 0,-0.002 0.533203,-0.640625 -0.138671,-0.115234 -0.460938,0.552734 -0.431641,-0.939453 0.183594,-0.81836 -0.177734,-0.03906 -0.195313,0.876953 0.507813,1.101563 0,0.002 -0.07031,0.832031 -0.322265,0.0078 0.0059,0.179688 0.302735,-0.0078 -0.0332,0.40625 -0.002,0 -0.86914,-0.753907 -0.242188,-0.492187 -0.267578,-0.542969 0,-0.002 0.0098,-0.712891 -0.179688,-0.0039 -0.0078,0.541016 -0.496094,-0.435547 -0.119141,0.136718 0.628906,0.550782 0.22461,0.458984 0.21875,0.445313 -0.947266,-0.134766 -0.77539,-0.470703 -0.09375,0.154297 0.607422,0.36914 -0.556641,0.138672 0.04297,0.175781 0.75,-0.1875 0.002,0 1.08789,0.154297 0.002,0 0.980469,0.84961 0.002,0.002 0.34375,0.84375 -0.560546,0.285156 -0.125,0.158203 -0.386719,-0.0918 -0.8125,-0.558593 -0.103516,0.148437 0.632813,0.435547 -1.126954,0.146484 -0.002,0 -0.640625,-0.314453 -0.07813,0.16211 0.523438,0.255859 -0.476563,0.3125 0.09961,0.150391 0.591797,-0.386719 0.40625,-0.05274 0.943359,-0.123046 0.002,0 0.304688,0.07226 -0.248047,0.314453 0.142578,0.111328 0.298828,-0.378906 1,0.236328 0.002,0 0.002,0.002 0.691406,0.458984 -0.193359,-0.01367 -0.857422,0.591797 0.101563,0.148437 0.80664,-0.55664 0.447266,0.03125 0.490234,0.324218 -0.18164,0.376954 -0.002,0.002 -0.820313,0.384765 -0.365234,0.171875 -1.123047,-0.189453 -0.119141,-0.01953 -0.002,0 -0.832031,-0.753906 -0.867188,-0.248047 -0.71875,0.222656 0.05273,0.171875 0.667969,-0.207031 0.77539,0.222656 0.695313,0.628906 0,0.002 -0.701172,0.177734 0.04492,0.175781 0.845703,-0.216797 1.142578,0.19336 -0.607422,0.9375 -0.8125,0.458984 -0.541016,0.640625 0.136719,0.117187 0.521485,-0.617187 0.822265,-0.464844 0.693359,-1.066406 0.683594,-0.322266 0.146485,0.517579 L 49.5,48.370382 l -0.02734,0.177735 0.855469,0.130859 0.710937,0.664062 0.01953,0.0957 -0.369141,0.06445 -0.623047,-0.322266 -0.08398,0.160156 0.679687,0.34961 0.435547,-0.07617 0.300782,1.417969 -0.958985,-0.246094 -0.777344,-0.199219 -0.873047,-0.742187 -0.115234,0.136718 0.775391,0.66211 -0.804688,0.330078 -0.447265,0.759766 0.03711,0.759765 0.179687,-0.0078 -0.03516,-0.707032 0.390625,-0.660156 0.855469,-0.353515 0.002,0 1.824219,0.46875 0.02539,0.0059 0.002,0 1.632812,1.328125 a 30,30 0 0 0 0.123047,-0.13086 30,30 0 0 0 0.875,-0.939453 l 0.658203,-2.015625 0.441406,-0.296875 0.480469,0.435547 a 30,30 0 0 0 0.109375,-0.144531 l -0.435547,-0.394531 0,-0.002 1.460938,-0.982422 -0.002,0.01172 a 30,30 0 0 0 0.322265,-0.523438 l -0.07617,-0.04297 0.07227,-0.626953 1.412109,-1.726562 a 30,30 0 0 0 0.648438,-1.34375 l 0.02148,-0.09961 0.01367,0.02539 a 30,30 0 0 0 0.109375,-0.226563 l -0.01758,-0.292968 0,-0.0039 0.03711,-0.169921 0.179688,-0.84375 0,-0.002 0.002,-0.0039 0.789063,-1.201172 a 30,30 0 0 0 0.169921,-0.46875 l -0.06445,-0.763672 0.423828,-0.68164 -0.154296,-0.0957 -0.455079,0.734375 0.08008,0.945312 -0.822266,1.251953 -0.210938,-1.347656 0,-0.002 0.378907,-0.898438 0.002,-0.002 0.542968,-0.523437 -0.125,-0.128906 -0.447265,0.429687 -0.09766,-0.371094 0,-0.002 0.107421,-0.349609 0.109376,-0.359375 0.06055,0.01172 0.03516,-0.175781 -0.04297,-0.0078 0.136719,-0.449219 0.002,-0.002 0,-0.002 1.037109,-1.142578 0.429688,-0.47461 c 0.04951,-0.0041 0.08793,-0.0094 0.136718,-0.01367 a 30,30 0 0 0 0.03711,-0.253906 c -0.02402,0.012 -0.04621,0.02105 -0.07031,0.0332 l 0.115235,-0.326172 a 30,30 0 0 0 0.158203,-1.050781 l -0.199219,-0.740234 0,-0.002 0.101563,-0.699219 -0.177735,-0.02539 -0.07422,0.50586 -0.357422,-0.460938 -0.142578,0.111328 0.476563,0.615235 0,0.002 0.138672,0.513672 0.136719,0.511718 -0.404297,1.148438 -0.02344,0.02734 -1.365234,1.501953 -0.498047,-1.429688 0.01563,-0.802734 0.0059,-0.28125 0,-0.002 0.539063,-0.644531 -0.138672,-0.115235 -0.486328,0.582031 -0.002,0 -0.4375,-0.552734 -0.140625,0.113281 0.486328,0.613281 -0.01953,0.919922 -0.636719,-0.501953 -0.113281,0.140625 0.759765,0.59961 0,0.002 0.01367,0.03516 0.523437,1.5 0,0.002 -0.138671,0.457031 -0.002,0 -0.603516,-0.121093 -0.771484,0.28125 0.0098,-0.72461 0,-0.002 0.40625,-0.632812 -0.152344,-0.09766 -0.345703,0.539063 -0.486328,-0.716797 -0.002,-0.002 -0.142578,-0.730469 -0.175781,0.03516 0.111328,0.570313 -0.617188,-0.296875 -0.07813,0.162109 0.75586,0.365235 0.002,0 0.544922,0.804687 0,0.002 -0.01172,0.789063 0,0.002 -0.121094,0.04297 -0.07422,0.11914 -0.002,0 -0.660156,-0.408203 -0.25,-0.728516 -0.171875,0.05859 0.224609,0.652344 0,0.002 -0.71875,0.08203 0.02148,0.179688 0.796875,-0.0918 0.002,0 0.660156,0.40625 -0.537109,0.847656 -0.002,0.002 -1.171875,0.853516 -0.08008,-0.148438 -0.220703,-0.800781 -0.01172,-0.04492 0,-0.002 0.240234,-0.898437 0.488281,-0.65625 -0.144531,-0.107422 -0.509766,0.683594 -0.210937,0.792968 -0.15625,-0.179687 -0.06445,-1.59375 -0.0059,-0.121094 0.128907,-0.210937 0.716796,-1.16211 0.857422,-0.302734 0.744141,0.02734 0.0078,-0.179688 -0.779297,-0.02734 -0.800782,0.279297 0.0039,-1.339844 0.189453,-0.291015 0.40625,-0.628906 0.580078,-0.402344 -0.103516,-0.148438 -0.410156,0.285157 0.146484,-0.732422 -0.175781,-0.03516 z m -44.373047,0.18164 -0.06445,0.111328 -0.107422,-0.0078 0.171875,-0.103516 z m -1.259765,0.167969 0.130859,0.0098 -0.121094,0.0625 -0.0098,-0.07227 z m 0.410156,0.07031 0.683594,0.04687 -0.119141,0.205078 -1.279297,0.654297 -0.623047,0.03125 0.216797,-0.365234 0.574219,-0.292969 0.04101,0.322266 0.179688,-0.02344 -0.04883,-0.386718 0.375,-0.191407 z m 2.654297,0.398438 0.226562,0.05859 0,0.002 -0.324219,0.65039 -0.597656,-0.544922 0.695313,-0.166015 z m -2.011719,0.01758 1.087891,0.183594 0.742187,0.675781 -0.05078,0.105469 -0.002,0.002 -1.53125,0.689453 -0.544922,-0.628906 -0.837891,-0.445313 1.136719,-0.582031 z m -5.1972656,0.01172 1.4980468,0.52539 0.5917969,0.207032 0.5078125,0.464843 -0.4921875,0.828125 -0.00195,0 L 8.1835938,35.930929 6.6738281,36.745382 5.9375,36.173117 5.5429688,35.321554 4.7382812,33.58132 l 2.4082032,-0.25 z m 3.8437496,0.660156 0.002,0 0.939453,0.498047 0.486328,0.564453 -0.345703,0.15625 -0.002,0 -1.052734,0.04687 -0.002,0 -0.0039,0 L 10.75,35.208273 9.9746094,34.495382 10.25,34.028585 l 0.002,0 0.496094,-0.02539 0.242187,-0.01172 z m -0.955078,0.04687 -0.1972654,0.332031 -0.3320312,-0.304687 0.5292966,-0.02734 z m -0.1562498,0.615234 0.6796878,0.625 -1.0781252,0.04883 0.3984374,-0.673829 z M 12,35.39382 l -0.09961,0.02734 -0.0039,0 L 11.79688,35.40163 12,35.39382 Z m -1.355469,0.06055 0.263672,1.451171 0,0.002 -0.07031,0.375 -0.0059,-0.0059 -0.5625,0.492188 -0.7402341,0.251953 -0.015625,0.0059 -2.546875,-1.052734 -0.00195,-0.002 -0.1367188,-0.105469 1.1445312,-0.617188 1.3652344,-0.734374 1.3066403,-0.06055 z m -4.6835935,0.964843 0.5175781,0.402344 -0.5039062,0.03906 -0.013672,-0.441407 z m 0.5878906,0.578125 0.00195,0 0.3261719,0.134766 0,0.002 0.8222657,0.638672 0.2695312,0.451172 0.6113281,1.023437 -0.1074219,1.289063 -0.3867187,-0.01563 -0.00195,0 -1.1855469,-0.636764 -0.7597656,-1.169922 -0.1132813,-0.175781 -0.044922,-1.496094 0.5683593,-0.04492 z m 4.4980469,0.15625 0.416016,0.671875 -0.154297,0.09961 -0.002,0 -0.09766,0.0059 0.0059,-0.04297 -0.28711,-0.04101 -0.0078,-0.02539 0,-0.002 0.126953,-0.666016 z m -3.5429688,0.238279 1.3359376,0.552734 -0.035156,-0.01172 -0.9941406,-0.302734 -0.3066407,-0.238281 z m 3.2812498,0.164062 -0.04101,0.222656 -0.03711,0.03516 -0.002,0 -0.183594,-0.02539 0.263672,-0.232422 z m -0.46289,0.386719 0.002,0 0.21289,0.03125 -0.0078,0.0078 -0.40625,0.0293 0.199219,-0.06836 z m 42.251953,0.01758 0.726562,0.0078 -0.228515,0.775391 -0.453125,-0.552734 -0.04492,-0.230469 z m 0.916015,0.0098 0.117188,0 0.410156,0.34375 0.878906,0.736328 -0.328125,0.763672 -0.03516,0.947265 -1.021484,-0.769531 0,-0.002 -0.306641,-1.054688 0.285156,-0.964843 z m -41.933593,0.0098 0.002,0 0.03711,0.0625 -0.07617,-0.03906 0.03711,-0.02344 z m -0.238282,0.125 0.259766,0.13086 -0.08398,0.833984 -0.332032,0.4375 -0.33789,-0.3125 0.0332,-0.164063 -0.265625,-0.05273 -0.8203126,-0.761719 0.5507816,-0.03906 -0.09375,0.08789 0.125,0.132812 0.253906,-0.242188 0.002,0 0.210937,-0.01562 0.117188,0.423828 0.173828,-0.04883 -0.107422,-0.386719 0.314453,-0.02344 z m -1.8124996,0.115235 0.00195,0 0.7460936,0.691406 -0.208984,-0.04102 0,-0.002 -0.002,0 -0.5625003,-0.640625 0.025391,-0.0078 z m 49.5527346,0.03125 0.537109,0.107422 -0.132812,0.439453 -0.16211,0.04297 0.06836,0.261719 -0.01953,0.06445 -0.30664,1.00586 -0.277344,-0.478516 0.121094,0.04492 0.06445,-0.167969 -0.328125,-0.125 -0.107422,-0.185547 0.330078,-0.289062 -0.119141,-0.134766 -0.302734,0.265625 -0.158203,-0.27539 0.0039,-0.289063 0.789063,-0.287109 z m -0.970703,0.357422 -0.002,0.08203 -0.03711,-0.02344 0.03906,-0.05859 z m -0.134766,0.21289 0.154297,0.09375 0,0.002 0.002,0.002 0.04883,0.08399 -0.04102,0.01367 0.08789,0.277343 -0.01758,0.01758 -0.002,0 -0.65625,0.177735 0.423828,-0.667969 z m -2.910156,0.34961 0.289062,0.242187 0.50586,0.931641 0,0.002 0.07031,0.253906 0,0.002 -0.304687,1.009766 -0.541016,-0.04687 -0.353516,-0.646485 0,-0.0039 0.03711,-1.0625 0.296875,-0.68164 z m 0.486328,0.228515 0.07031,0.07813 0,0.002 0.02734,0.09766 -0.09766,-0.177735 z m 3.925781,0.03711 0.05469,0.205079 -0.330078,0.787109 -0.01953,-0.01953 0.294922,-0.972657 z m -1.232422,0.05078 0.002,0 0.04687,0.01758 0.002,0.002 0.05469,0.177734 -0.324219,-0.136718 0,-0.002 0.21875,-0.05859 z m 0.265625,0.101562 0.0078,0.002 0.002,0 0,0.002 0.203125,0.351563 -0.146484,-0.148437 -0.06641,-0.207032 z m -0.751953,0.03125 -0.0039,0.0078 0.689453,0.291015 0.560547,0.56836 0.164062,2.746094 0,0.002 0,0.002 0,0.002 -0.03711,0.169922 -2.310547,-1.669922 -0.002,-0.002 -0.621094,-1.148438 0.9375,-0.683594 0.253907,-0.185546 0.36914,-0.09961 z m -4.902344,0.470703 0.126954,0.0098 0.03906,0.0995 -0.166016,-0.109375 z m 0.328125,0.02539 0.238282,0.01758 0.002,0 1.144531,0.865234 0.07813,0.144532 0.220703,0.404297 -0.423828,-0.03711 -0.513672,-0.388672 0.271485,-0.177734 -0.09766,-0.150391 -0.326172,0.212891 -0.335937,-0.253906 -0.002,-0.002 -0.25586,-0.634766 z m -44.958984,0.589844 0.2558594,0.0098 -0.00195,0.01367 -0.1660156,0.177735 -0.087891,-0.201172 z m 47.851563,0.03906 0.513671,0.951172 -0.779297,-0.06836 0.04688,-0.160157 0.21875,-0.722656 z m -2.570313,0.283203 0.109375,0.08203 0,0.002 -0.06055,0.03906 -0.002,0 -0.04687,-0.123047 z m 5.716797,0.08594 0.167969,1.078125 0,0.002 -0.08203,0.378906 -0.08594,-1.458984 z m -5.453125,0.113281 0.486328,0.367188 0,0.002 -0.570313,0.392578 -0.0039,-0.01563 0.06836,-0.0957 -0.146485,-0.103516 -0.115234,0.164063 -0.15625,0.216796 0.253906,-0.808593 0.183594,-0.119141 z m 0.666015,0.464844 0.535157,0.04492 0.002,0.002 0.40625,0.742187 0,0.002 0.138672,1.207031 0.0918,0.814453 -1.1875,-0.802734 -0.316407,-0.496094 0,-0.002 0.314454,-0.324219 0.002,0 0.002,-0.002 0.847656,-0.191407 -0.04102,-0.175781 -0.699218,0.158203 0.277343,-0.626953 -0.166015,-0.07226 -0.341797,0.773437 -0.002,0.0039 -0.292969,0.300782 -0.142578,-0.222657 -0.136719,-0.644531 0,-0.002 0.708984,-0.486328 z m 0.753907,0.06445 0.382812,0.0332 -0.128906,0.431641 -0.253906,-0.464844 z m 0.566406,0.04883 0.002,0 0.958984,0.08203 2.373047,1.714844 0,0.002 -0.195312,0.908203 -1.808594,2.210938 -1.275391,-2.0625 -0.193359,-1.681641 -0.05859,-0.513672 0,-0.002 0.197266,-0.658203 z m -2.191406,0.486328 0.08203,0.388672 -0.330078,-0.1875 0,-0.002 0.04297,-0.05859 0,-0.002 0.205078,-0.138672 z m -0.517578,0.355469 -0.01172,0.734375 -0.07813,-0.01563 -0.002,0 0,-0.002 -0.002,0 -0.240235,-0.25 0.08008,-0.158203 0.105469,-0.207032 0.148438,-0.101562 z m 0.341797,0.09375 0.324218,0.185547 0.002,0.002 0.16211,0.251953 0,0.002 -0.248047,0.25586 -0.002,0 -0.238281,-0.697266 z m -1.5,0.02148 0.238281,0.0039 0.367187,0.380859 -0.177734,0.351562 -0.002,0 -0.01953,0.0039 -0.002,0 -0.175781,-0.09375 -0.09766,-0.529297 -0.130859,-0.117188 z m 0.49414,0.0078 0.298828,0.0059 -0.101562,0.199219 -0.197266,-0.205078 z m -0.748047,0.0098 0.216797,0.19336 0.06055,0.324219 -0.06641,-0.03516 -0.210938,-0.482422 z m 1.591797,0.04102 0.222656,0.652344 -0.232422,-0.05078 0.0098,-0.601563 z m -48.1015624,0.304688 -0.082031,0.5 -0.3789063,-0.134766 a 30,30 0 0 0 0.1015625,0.228516 l 0.2460938,0.08789 -0.011719,0.07422 -0.1054687,0.123047 a 30,30 0 0 0 0.080078,0.183594 l 0.1601562,-0.185547 0.2519532,-0.0625 0.00977,0.0039 0.6464844,0.65625 0.021484,0.115234 -0.6132813,0.265625 -0.125,-0.0293 a 30,30 0 0 0 0.1367187,0.238281 l 0.5449219,0.378906 0.1035157,-0.148437 -0.4667969,-0.324219 0.453125,-0.197266 0.087891,0.490235 0.1777344,-0.03125 -0.097656,-0.533204 0.00195,0 -0.00195,-0.0059 L 6.1875042,44.513 5.574223,43.889954 l 0.2324218,-0.05664 -0.042969,-0.173828 -0.3867188,0.09375 -0.1835937,-0.06445 0.087891,-0.533204 -0.1777344,-0.0293 z m 47.5019534,0.158203 0.107422,0.113281 -0.1875,0.04492 0.08008,-0.158203 z m 1.349609,0.05469 0.1875,0.292969 -0.388672,-0.08594 0.201172,-0.207032 z m -2.865234,0.04883 0.638672,0.0293 0.205078,0.109375 0.0098,0.05664 -0.03906,0.0098 -0.212891,0.173829 -0.376953,-0.0918 -0.224609,-0.28711 z m 1.798828,0.152344 0.002,0 0.121094,0.02734 -0.0059,0.330078 -0.49414,-0.265625 0.376953,-0.0918 z m 0.302734,0.06641 0.273438,0.06055 -0.113282,0.597657 -0.166015,-0.244141 0,-0.002 0.0059,-0.41211 z m 0.449219,0.09961 0.002,0 0.65625,0.144531 0.002,0 1.332031,0.902344 0.002,0.002 0,0.002 1.326172,2.142578 0,0.002 -0.0625,0.542969 -1.753907,-1.013672 0.488281,-0.03906 -0.01562,-0.179688 -0.748047,0.06055 -0.002,0 -0.251954,-0.146484 -1.072265,-1.578125 -0.04687,-0.07031 0.144531,-0.771484 z m -1.371094,0.05273 0.04883,0.302734 -0.126953,-0.142578 -0.01953,-0.101562 0.09766,-0.05859 z m 0.191407,0.05078 0.570312,0.306641 0.273438,0.400391 0,0.002 -0.04883,0.257812 -0.05469,0.283203 -0.660156,-0.74414 -0.08008,-0.50586 z m -3.414063,0.0039 0.910156,0.4375 0.002,0 0.002,0.002 0.714843,0.861328 -1.259765,-0.06641 -0.638672,-0.41211 -0.01563,0.02539 -0.105469,-0.253906 0,-0.002 0.04883,-0.582031 0.341797,-0.0098 z m 4.400391,0.916015 0.884765,1.302735 0.03711,0.05273 -0.681641,-0.06641 0.324219,-0.279297 -0.117188,-0.136719 -0.388672,0.335938 -0.158203,-0.679688 0,-0.002 0.07227,-0.378906 0.02734,-0.148438 z m -4.587891,0.173828 0.345703,0.22461 -0.208984,0.107422 -0.002,0 -0.134766,-0.332032 z m 0.544922,0.324219 0.002,0 1.449219,0.07813 1.353515,0.683594 -1.246093,0.744141 -0.002,0 -0.679688,-0.04688 -0.002,0 -0.263672,-0.175781 -0.685547,-0.455078 -0.267578,-0.652344 0,-0.002 0.341797,-0.173828 z m -37.533203,0.0625 -0.08008,0.185547 0,0.002 -0.002,0 0,0.002 -0.810546,0.69336 -0.167969,0.01563 0.542969,-0.728516 0.517578,-0.169922 z m 37.03125,0.195313 0.205078,0.501953 -0.765625,-0.179688 0,-0.002 0.04883,-0.06055 0.511719,-0.259765 z m 3.515625,0.591797 0.876953,0.08594 -0.31836,0.802734 -0.36914,0.210938 -0.470703,0.269531 -0.302735,-0.05078 -0.07813,-0.542969 -0.177734,0.02539 0.06836,0.484375 -0.458984,-0.07617 -0.0039,-0.002 -0.244141,-0.160157 0,-0.002 0.113281,-0.232421 1.365235,-0.8125 z m 1.146484,0.111328 0.957031,0.09375 0.002,0 0.195312,0.113281 -0.591797,0.488281 -0.396484,0.01953 -0.002,0 -0.164063,-0.714843 z M 6.0859375,46.311788 a 30,30 0 0 0 0.1601563,0.283204 l 0.421875,0.210937 0.53125,1.03125 0,0.0039 0.037109,0.314453 a 30,30 0 0 0 0.2207031,0.306641 l -0.076172,-0.636719 0.3515625,-0.732422 -0.1621094,-0.07812 -0.2851563,0.59375 -0.00195,0 -0.4824219,-0.9375 -0.7148437,-0.359376 z m 47.3300785,0.03516 0.130859,0.564453 0,0.002 -0.361328,0.01758 0.230469,-0.583984 z m 1.470703,0.144531 1.990234,1.148438 -0.02539,0.222656 -1.626953,1.091797 -1.291015,-1.171875 -0.16211,-0.699219 0.365235,-0.01758 0.695312,0.458984 0.09961,-0.150391 -0.619141,-0.410156 0.574219,-0.472656 z m -44.15625,0.04687 -0.158203,0.662109 0,0.002 -0.002,0 0,0.002 -0.484374,0.568359 0.136718,0.117188 0.410156,-0.482422 0.07422,0.152343 0,0.002 -0.564453,0.453126 -0.002,0 -1.2070312,0.128906 0.2871093,-0.558594 0.6210938,-0.75 0.8886721,-0.296875 z m -1.2031252,0.238281 0.013672,0.0039 -0.011719,0.0059 -0.00195,-0.0098 z m 41.0566402,0.111328 0.259766,0.01758 -0.05469,0.117188 -0.002,0 -0.203125,-0.134766 z m 3.003907,0.203125 0.144531,0.626953 -1.316406,-0.224609 0.658203,-0.376953 0.002,0 0.511719,-0.02539 z m -2.728516,0.197266 0.002,0 0.103516,0.06836 -0.177735,0.08594 0.07227,-0.154297 z m 0.302734,0.175781 0.002,0 0.509766,0.08789 0.02734,0.183594 -0.533203,1.226562 -0.144531,-0.160156 -0.132813,0.121094 0.191406,0.210937 -0.632812,-0.58789 0,-0.002 -0.185547,-0.65625 0.193359,-0.0918 0.02148,0.677734 0.179687,-0.0059 -0.02148,-0.716796 0.02539,-0.05078 0.5,-0.236328 z m 0.699219,0.119141 0.0293,0.0039 0,0.002 -0.02734,0.01367 -0.002,-0.01953 z m 0.308594,0.05273 1.640625,0.279297 1.259765,1.144531 -0.414062,0.279297 -0.002,0 -1.394531,0.31836 -0.347657,0.08008 -0.002,0 -1.367187,-0.363282 -0.002,0 -0.238282,-0.265624 0.111328,-0.259766 0.449219,-1.03711 0.002,-0.002 0.283204,-0.162109 0.02148,-0.01172 z m -0.947266,1.654297 0.09375,0.103516 -0.07813,0.01367 -0.02148,-0.101563 0,-0.002 0.0059,-0.01367 z m -39.78125,0.07617 -0.808594,0.527344 -0.394531,1.035156 0,0.002 -0.4999998,0.398438 a 30,30 0 0 0 0.1171876,0.134765 l 0.5000002,-0.396484 0.882812,-0.251953 0.730469,0.3125 0.07031,-0.166016 -0.789062,-0.337891 -0.787109,0.22461 0.318359,-0.835938 0.710938,-0.464843 0.757812,0.01953 0.0039,-0.179688 -0.8125,-0.02148 z m 40.046875,0.179688 0.002,0 1.228516,0.326171 0,0.002 -0.667969,0.56836 0.117188,0.136719 0.78125,-0.666016 1.607422,-0.367187 -0.658203,2.017578 -0.002,0 -0.802734,0.757812 -1.494141,-1.214844 0,-0.002 -0.324218,-1.521484 0.21289,-0.03711 z m -35.607422,1.898437 -0.46875,0.730469 -0.867187,0.474609 -0.01367,-0.826172 -0.179688,0.002 0.01367,0.953125 -0.554687,0.958985 -0.365235,-0.628906 -0.792968,-0.525391 0,-0.002 0.623047,-0.574219 -0.121094,-0.132813 -0.683594,0.63086 -0.002,0 0,0.002 -0.002,0 -0.806641,0.0625 -0.30664,0.02344 -0.002,0 -0.746093,-0.302734 a 30,30 0 0 0 0.367187,0.34375 l 0.314453,0.126953 0.002,0.002 0.867188,0.859375 0.03516,0.146485 a 30,30 0 0 0 0.240235,0.224609 l -0.06641,-0.273437 0.722657,0.269531 0.265625,0.363281 -0.285157,0.166016 a 30,30 0 0 0 0.15625,0.11914 l 0.238282,-0.138672 0.117187,0.160157 0.144531,-0.107422 -0.09375,-0.126953 0.175782,0.0098 0.04297,0.306641 0.179688,-0.02344 -0.03711,-0.273437 1.832031,0.09766 0.002,0 1.402344,1.0625 0,0.002 0.002,0.002 0.507812,1.33789 0,0.002 -0.208984,0.59961 a 30,30 0 0 0 0.160156,0.08789 l 0.181641,-0.521484 0.634765,0.658203 0.04102,0.275391 a 30,30 0 0 0 0.195313,0.0957 l -0.04297,-0.28711 0.748047,0.212891 0.04883,-0.173828 -0.857422,-0.246094 -0.726563,-0.753906 -0.242187,-0.636719 -0.222656,-0.58789 1.136718,0.226562 0.816407,0.712891 0.853515,0.173828 0.03711,-0.177735 -0.806641,-0.164062 -0.701172,-0.609375 0.769531,-0.400391 0.837891,-0.107422 0.710937,0.25586 0.06055,-0.169922 -0.75,-0.269531 -0.683593,0.08594 0.398437,-0.523437 0.640625,-0.34375 -0.08398,-0.160157 -0.675782,0.363282 -0.539062,0.708984 -0.002,0.002 -0.002,0 -0.839844,0.435547 -0.01367,0.0078 -0.002,0 -1.265625,-0.251953 -1.296875,-0.982421 1.455078,-0.5 0.002,0 1.072266,0.349609 0.576172,0.457031 0.113281,-0.140625 -0.601563,-0.478515 -1.021484,-0.332032 0.447266,-0.683594 0.169922,-0.259765 0.621093,-0.400391 -0.09766,-0.152344 -0.511719,0.330079 -0.07422,-0.898438 -0.181641,0.01367 0.08594,1.017578 -0.658203,1.005859 -1.597656,0.550782 -0.002,0 -1.876953,-0.101563 -0.04687,-0.335937 -0.0039,-0.0078 0.347656,-0.603515 0.257812,-0.445313 0.320313,-0.173828 0.658203,-0.361328 0.002,0 0.837891,-0.06836 -0.01367,-0.179688 -0.675781,0.05469 0.382812,-0.597657 -0.152344,-0.09766 z m 32.167969,0.980469 -0.173828,0.04883 0.171875,0.601562 -0.587891,-0.183593 -0.05273,0.173828 0.728516,0.226562 0.615234,0.498047 -0.771484,0.552734 -0.002,0 -0.902343,0.126954 0.02539,0.179687 0.753907,-0.107422 -0.291016,0.583985 -0.002,0.002 -0.578125,0.453125 0.109375,0.142578 0.478515,-0.373047 0.09766,0.572266 -0.248047,0.335937 -0.185547,0.06445 -1.048828,0.359375 0.511719,-1.126953 0,-0.002 0.002,-0.002 0.683593,-0.496094 -0.105468,-0.144531 -0.566406,0.410156 -0.02344,-0.757812 0.453125,-0.726563 -0.06641,-0.792969 -0.179688,0.01367 0.0625,0.734375 -0.359375,0.574219 -0.359375,-0.580078 -0.154297,0.09375 0.421875,0.685547 0.0293,0.910156 -0.595703,1.308594 -0.002,0.0039 -1.193359,1.191406 -0.476563,-1.390625 0,-0.002 0.191406,-0.980469 -0.175781,-0.03516 -0.167969,0.855469 -0.121093,-0.09961 -0.734375,-0.611329 -0.210938,-1.068359 -0.138672,-0.224609 0.0098,-0.0098 0.326172,-0.828125 -0.167969,-0.06641 -0.283203,0.716797 -0.167969,-0.275391 -0.154297,0.0957 0.01367,0.02344 -0.49414,0.283203 -0.002,0 -0.04883,-0.154297 0.257813,-0.710938 -0.167969,-0.06055 -0.224609,0.613282 -0.353516,-0.322266 0.0957,-0.154297 -0.152344,-0.0957 -0.09961,0.160156 -0.002,0 -0.09375,0.103516 0.01758,0.01758 -0.392578,0.625 -0.002,0 -0.705078,0.34961 -0.205079,-0.373047 0.111329,-0.341797 0.630859,-0.683594 0.181641,-0.835938 -0.175782,-0.03906 -0.171875,0.789062 -0.49414,0.533204 -0.126953,-0.583985 -0.175782,0.03906 0,0.002 -0.0293,0 -0.01758,0.787109 -0.708984,-0.603515 -0.267578,-0.664063 -0.166016,0.06836 0.283203,0.705078 0.875,0.74414 0.05469,0.101563 -0.220703,0.677734 0,0.002 -0.07422,0.08203 -0.232422,-0.05078 -0.386719,-0.365234 0.355469,-0.480469 -0.144531,-0.107422 -0.341797,0.462891 -0.002,0 -0.08789,-0.08398 0,-0.002 -0.0918,-0.365234 -0.138672,0.03516 -0.216796,-0.638672 -0.169922,0.05859 0.222656,0.654297 -0.53125,-0.183594 -0.05859,0.171875 0.6875,0.236328 0.134766,0.126954 0,0.002 0.06641,0.267578 0,0.002 -0.164062,0.90039 -0.220704,-0.220703 -0.0957,-0.222656 0.181641,-0.816406 -0.175781,-0.03906 -0.152344,0.683594 -0.002,0 -0.222656,-0.228516 -0.179688,-0.615234 -0.173828,0.05078 0.08594,0.292969 -0.105469,-0.105469 -0.128907,0.126953 0.339844,0.34375 0,0.002 0.0059,0.01758 -0.69336,-0.271485 -0.375,-0.667968 -0.03125,-0.701172 -0.179687,0.0078 0.03125,0.744141 0.427734,0.761719 0.908203,0.355468 0.38086,0.382813 0.002,0.002 0.341797,0.791016 0,0.002 -0.0957,0.5625 -0.716796,-0.191406 -0.488282,-0.511719 0.06055,-0.02734 -0.07422,-0.164063 -0.117187,0.05274 -0.132813,-0.138672 -0.357421,-0.869141 -0.542969,-0.576172 -0.13086,0.123047 0.519532,0.552735 0.357422,0.86914 0.113281,0.117188 -0.402344,0.18164 -0.654297,0.701172 -0.06641,0.304688 -0.05273,-0.0039 -0.0039,0 -0.826171,-0.390625 -0.439454,-0.564453 -0.142578,0.111328 0.464844,0.597656 0.146484,0.06836 -0.892578,-0.375 -0.002,-0.002 -0.40625,-0.640625 -0.152344,0.0957 0.359375,0.56836 -0.691406,0.210937 -0.707031,-0.107422 -0.02734,0.177735 0.748047,0.115234 0.814453,-0.248047 0.927735,0.388672 0.251953,0.337891 -0.191407,0.128906 -0.134765,0.08789 -0.769531,0.179688 0.04102,0.175781 0.554688,-0.128906 -0.378907,0.546875 -0.04102,0.748047 0.179687,0.0098 0.03711,-0.697265 0.474609,-0.681641 0.002,-0.002 0.335938,-0.220703 0.333984,0.445312 0,0.002 0.207031,1.214843 -0.875,-0.164062 -0.0332,0.177734 0.978516,0.185547 1.160156,0.998047 -0.09766,0.02734 0.002,-0.03125 -0.179688,-0.01367 -0.0078,0.0957 -0.261719,0.07227 a 30,30 0 0 0 1.117188,-0.166016 l -0.345704,-0.0293 -0.002,0 -1.15625,-0.996094 -0.105468,-0.08984 -0.222657,-1.314454 0,-0.002 0,-0.002 0.154297,-0.705078 0.109375,0.0078 0.04687,0.05273 0.05078,-0.04492 0.779297,0.05469 0.05664,0.0039 0.810547,0.546875 -0.06055,0.07031 0.568359,0.486328 0,0.002 0.541016,1.474609 -0.298828,0.277344 a 30,30 0 0 0 0.353515,-0.08008 l 0.01172,-0.01172 0.0039,0.0078 a 30,30 0 0 0 0.177734,-0.03906 l -0.0332,-0.08984 0.955078,-0.230469 0.195312,0.06836 a 30,30 0 0 0 0.289063,-0.08984 l -0.476563,-0.166016 -0.90039,0.216797 0.210937,-0.720703 0.56836,-0.548828 -0.07227,-0.07617 0.523438,-0.271484 2.083984,0.248047 0.002,0.002 0.560547,0.484375 a 30,30 0 0 0 0.189453,-0.07227 l -0.632813,-0.548828 -0.542968,-2.226562 0,-0.002 0.154297,-0.474609 0.0098,-0.0332 0.240235,-0.15625 0.002,0 0.957031,0.09766 0.957031,0.794922 0.515625,1.507812 L 44.5722,58.472 a 30,30 0 0 0 0.193359,-0.08594 l 0.02539,-0.195312 0.002,-0.002 0,-0.002 1.271484,-1.271484 0.002,-0.002 0.419922,-0.142578 1.00586,-0.345703 0.773437,0.05078 a 30,30 0 0 0 0.232422,-0.166016 l -0.849609,-0.05469 0.339843,-0.462891 0.328125,-0.447265 0.06836,-0.02539 0.5625,0.214844 0.0078,-0.002 -0.125,0.140625 0.121094,0.107421 -0.71875,-0.04101 -0.0098,0.179687 0.759766,0.04492 a 30,30 0 0 0 0.234375,-0.167968 l -0.242188,-0.01367 0.169922,-0.191407 0.0957,0.1875 a 30,30 0 0 0 0.14846,-0.105336 l -0.115234,-0.226563 0.01562,-0.01758 0.365235,-0.113281 -0.0293,0.189453 a 30,30 0 0 0 0.207031,-0.148438 l 0.02148,-0.134765 0,-0.002 0.101562,-0.138672 0.378906,-0.08399 a 30,30 0 0 0 0.460938,-0.353515 l -0.466797,0.05469 -0.06055,-0.04883 0.501953,-0.699219 0.0293,-0.03906 0.640625,-0.236328 0.002,0 0.02344,0.0059 0.199218,0.199219 a 30,30 0 0 0 0.414026,-0.363271 L 52,53.469992 l 0.226562,-0.08398 a 30,30 0 0 0 0.376954,-0.330078 l -1.03711,0.380859 -0.15039,-0.734374 -0.177735,0.03711 0.152344,0.742187 -1.005859,-0.189453 -0.496094,-0.558593 -0.134766,0.121093 0.441406,0.496094 -0.667968,0.367187 -0.002,0 -0.591797,-0.01367 -0.002,0 -0.154297,-0.125 -0.519532,-0.421875 -0.208984,-0.732422 z m -35.570312,0.261718 0.0039,0 0.828125,0.548829 0.396484,0.68164 -0.197265,0.341797 -0.308594,-0.419922 -0.914063,-0.341797 -0.74414,-0.738281 0.05078,-0.0039 0.884766,-0.06836 z m 37.875,0.783204 0.740234,0.140625 -0.365234,0.134765 -0.002,0 -0.83789,-0.01953 0.464844,-0.255859 z m 1.578125,0.02539 -0.150391,0.248047 -0.140625,-0.140625 0.291016,-0.107422 z m -12.09961,0.382813 0.01953,0.08789 0,0.002 -0.02344,0.07031 0.0039,-0.160156 z m 1.523438,0.0039 0.410156,0.376953 0.05273,0.160156 -0.771484,-0.04687 0.308594,-0.490234 z m 7.572265,0.0039 0.490235,0.0098 1.15039,0.02734 -0.441406,0.611328 -0.328125,-0.267578 -0.115234,0.140625 0.335937,0.273437 -0.171875,0.240235 -0.002,0 -0.433594,0.0957 -0.224609,0.253906 -0.002,0 -0.08984,-0.177735 -0.162109,0.08203 0.07617,0.15039 -0.05664,0.01758 -0.316406,-0.121093 0.560547,-0.214844 -0.06445,-0.167969 -0.75,0.28711 -0.0332,-0.01367 0,-0.78711 -0.03711,0 0.615234,-0.439453 z m -35.15625,0.28125 0.01172,0.08399 -0.05859,-0.002 0.04687,-0.08203 z m 28.810547,0.06641 0.09766,0.160156 -0.515626,0.496094 -0.115234,-0.351563 0.533203,-0.304687 z m 5.585938,0.195312 0.002,0.810547 -0.353516,0.480469 -0.08984,-0.521485 0.355469,-0.708984 0.002,0 0.08398,-0.06055 z m -7.261719,0.117188 0.002,0 0.002,0 0.96875,0.05859 0.002,0 0.148438,0.451172 -0.121094,0.371094 -0.480469,-0.246094 -0.08398,0.160156 0.507812,0.261719 -0.0625,0.19336 -0.376953,0.248046 -0.07227,-0.002 -0.861328,-0.652343 -0.273438,-0.498047 0.03516,-0.01563 0.666016,-0.330078 z m 1.871094,0.0059 0.09961,0.162109 0.1875,0.949219 -0.876953,-0.0918 -0.117188,-0.06055 0.132813,-0.40625 0.574219,-0.552734 z m -2.939453,0.04297 0.11914,0.21875 -0.07813,0.03906 -0.15039,0.07422 0.109375,-0.332031 z m 10.322265,0.201172 0.0293,0.02344 0.0039,0.02344 -0.08008,0.01758 0.04687,-0.06445 z m -11.464844,0.07422 0.40625,0.384766 0.183594,0.04102 -0.175781,0.195312 -0.580078,0.654297 -0.002,0 -0.05469,-0.183594 0.191406,-1.050781 0,-0.002 0.03125,-0.03906 z m 1.34961,0.101563 0.0625,0.115234 0.126953,0.232422 -0.609375,-0.134766 0.0059,-0.0078 0.002,-0.002 0.41211,-0.203125 z m -0.558594,0.367187 0.884766,0.195313 0.384765,0.291015 0.279297,0.212891 -0.33789,-0.0039 -0.002,0.18164 0.582032,0.0059 0.326172,0.248047 0.07813,0.318359 0.439453,1.802734 -1.982422,-0.236328 -0.002,0 -1.283203,-1.138672 -0.01367,-0.04101 -0.25,-0.826172 0,-0.002 0.896484,-1.007813 z m 2.214844,0.730469 -0.06445,0.199219 -0.111328,-0.08399 0.175781,-0.115234 z m -4.884766,0.324219 0.429688,0.451172 -0.736328,0.123046 -0.107422,-0.185546 -0.15625,0.08984 0.08789,0.154297 -0.484375,0.435547 -0.103515,-0.0078 0.04883,-0.228516 0.595703,-0.638672 0.425781,-0.193359 z m 1.642578,0.15039 0.181641,0.59375 -0.269531,-0.07226 0.08789,-0.521485 z m 9.509766,0.109375 -0.289062,0.04883 0.01758,0.107421 a 30,30 0 0 0 0.271484,-0.15625 z m -10.542969,0.345703 0.738281,0.197266 -0.189453,1.119141 -1.126953,-0.759766 -0.242187,-0.419922 0.820312,-0.136719 z m -0.998047,0.1875 0.189454,0.330079 -0.515626,-0.03711 0.326172,-0.292969 z m 1.91211,0.05664 0.392578,0.105469 1.208984,1.072266 0,0.002 -0.876953,0.453125 -0.002,0 -0.841797,-0.177735 -0.08789,-0.236328 0,-0.002 0.207032,-1.216797 z m -3.539063,0.06055 0.498047,0.236328 -0.214844,0.142578 -0.283203,-0.378906 z m 0.703125,0.316406 0.002,0 0.01758,0 -0.109376,0.50586 -0.222656,-0.298828 0.3125,-0.207032 z m 2.789063,1.277344 0.652343,0.138672 -0.27539,0.570312 0.162109,0.08008 0.0078,-0.01562 -0.117188,0.40039 -0.429687,-1.173828 z m 1.064453,0.03125 -0.298828,0.289062 0.08594,-0.177734 0,-0.002 0.002,0 0.210938,-0.109375 z m -2.205078,0.650391 -0.134766,0.123047 0.503906,0.548828 0.05469,0.478515 a 30,30 0 0 0 0.175781,-0.03906 l -0.0586,-0.517609 -0.541015,-0.59375 z m -4.669922,0.269531 -0.04297,0.175781 0.748047,0.183594 0.548828,0.560547 -1.054687,0.3125 -0.123047,0.171875 a 30,30 0 0 0 0.228515,-0.0078 l 0.0059,-0.0078 1.111328,-0.330078 0.002,0 0.392578,0.136718 0.002,0 0.111328,0.119141 a 30,30 0 0 0 0.582032,-0.07031 l -1.03711,-0.359374 -0.677734,-0.6875 -0.796875,-0.197266 z m 3.199219,0.314453 -0.07031,0.542969 -0.412109,-0.382813 -0.123047,0.132813 0.521484,0.486328 0.01953,0.07422 a 30,30 0 0 0 0.179687,-0.02149 l -0.02734,-0.107422 0.0918,-0.701172 -0.179687,-0.02344 z"
       id="circle5163"
       inkscape:connector-curvature="0"
       transform="matrix(1.0543929,0,0,1.0210847,-1.7354802,-0.66143296)">
      <title
         id="title5668">sclera</title>
    </path>
    <ellipse
       style="opacity:1;fill:#000000;fill-opacity:1;stroke:none"
       id="path4843"
       cx="32.005093"
       cy="33.312824"
       rx="12.652716"
       ry="12.253016" />
    <ellipse
       cy="33.312824"
       cx="32.005093"
       id="circle4845"
       style="opacity:1;fill:url(#radialGradient4853);fill-opacity:1;stroke:none"
       rx="11.598323"
       ry="11.231932" />
    <ellipse
       style="opacity:1;fill:#000000;fill-opacity:1;stroke:none"
       id="circle4857"
       cx="32.005093"
       cy="33.312824"
       rx="4.5493121"
       ry="4.4055991" />
    <g
       id="g4874"
       transform="matrix(0.61439328,-0.51580208,0.53262779,0.5949846,16.937215,46.577693)"
       style="fill:#ffffff">
      <circle
         style="opacity:0.38800001;fill:#ffffff;fill-opacity:1;stroke:none"
         id="circle4876"
         cx="19.601831"
         cy="-5.3138208"
         r="1.0229845" />
      <ellipse
         style="opacity:0.38800001;fill:#ffffff;fill-opacity:1;stroke:none"
         id="ellipse4878"
         cx="24.918892"
         cy="-6.3484635"
         rx="4.1783581"
         ry="1.6713433" />
      <circle
         style="opacity:0.38800001;fill:#ffffff;fill-opacity:1;stroke:none"
         id="circle4880"
         cx="30.370464"
         cy="-4.9342413"
         r="0.94802052" />
      <circle
         r="0.55145079"
         cy="-3.9436991"
         cx="17.672983"
         id="circle4882"
         style="opacity:0.38800001;fill:#ffffff;fill-opacity:1;stroke:none" />
    </g>
  </g>
</svg>
